<svg xmlns="http://www.w3.org/2000/svg" height="56" width="724"><path d="M451.914 33.785c-.137.525-.593.793-1.355.793v.582h1.062v3.055h.875v-4.43h-.582zM455 34.5v3h14v-3h-14zm-2.96 5.238c-.92 0-1.456.543-1.456 1.48 0 .039 0 .089.006.157h.838v-.144c0-.494.23-.782.63-.782.388 0 .626.27.626.713 0 .488-.15.688-1.131 1.375-.744.519-.982.906-1.026 1.725h3.012v-.782h-1.875c.375-.793 1.895-1.01 1.895-2.335 0-.857-.589-1.407-1.52-1.407zm2.96.762v3h14v-3h-14zm-3.004 5.166c-.569 0-1.437.212-1.437 1.412v.074h.812c.013-.475.112-.781.606-.781.35 0 .55.213.55.582 0 .443-.256.668-.775.668h-.076v.588c.306 0 .363.01.513.045.294.08.48.337.48.662 0 .387-.274.668-.655.668-.413 0-.637-.237-.662-.694h-.85c.006.888.588 1.444 1.494 1.444.944 0 1.549-.556 1.549-1.418 0-.519-.225-.856-.725-1.1.413-.256.582-.537.582-.943 0-.738-.55-1.207-1.406-1.207zM455 46.5v3h14v-3h-14z" opacity=".5"/><path d="M451.914 5.785c-.137.525-.593.793-1.355.793v.582h1.062v3.055h.875v-4.43h-.582zM455 6.5v3h14v-3h-14zm-2.961 5.238c-.919 0-1.455.543-1.455 1.48 0 .039 0 .089.006.157h.838v-.145c0-.493.23-.78.63-.78.388 0 .626.268.626.712 0 .488-.15.688-1.131 1.375-.744.519-.982.906-1.026 1.725h3.012v-.782h-1.875c.375-.793 1.895-1.01 1.895-2.336 0-.856-.589-1.406-1.52-1.406zM455 12.5v3h14v-3h-14zm-3.004 5.166c-.569 0-1.437.212-1.437 1.412v.074h.812c.013-.475.112-.781.606-.781.35 0 .55.213.55.582 0 .443-.256.668-.775.668h-.076v.588c.306 0 .363.01.513.045.294.08.48.337.48.662 0 .387-.274.668-.655.668-.413 0-.637-.237-.662-.694h-.85c.006.888.588 1.444 1.494 1.444.944 0 1.549-.556 1.549-1.418 0-.519-.225-.856-.725-1.1.413-.256.582-.537.582-.943 0-.738-.55-1.207-1.406-1.207zM455 18.5v3h14v-3h-14zM20.424 17.399c0-1.584-.858-2.838-2.662-3.894 1.584-1.012 2.2-1.936 2.2-3.3 0-1.474-1.012-4.224-5.236-4.224h-7.15v16.038h7.216c4.51 0 5.632-2.706 5.632-4.62m-9.548-8.668h3.586c1.518 0 2.332.638 2.332 1.826 0 1.166-.814 1.804-2.332 1.804h-3.586v-3.63m0 6.38h3.938c1.606 0 2.442.726 2.442 2.09 0 1.342-.836 2.068-2.442 2.068h-3.938v-4.158m33.863-9.13h-2.068l-3.41 16.038h2.068l3.41-16.038m19.101-.252v11.263c0 3.256 2.333 5.28 6.139 5.28 3.762 0 6.181-2.068 6.181-5.28V5.73h-2.047v11.263c0 2.156-1.56 3.477-4.134 3.477-2.354 0-4.092-1.057-4.092-3.477V5.73H63.84zM63 24v1h14v-1H63zm56.873-18.02l-.594 2.75h4.883l-2.838 13.29h3.301l2.838-13.29h4.664l.594-2.75h-12.848zm15.268 15.803l-1.764 1.752-1.754-1.738-.588.588 1.752 1.752-1.764 1.763.6.588 1.754-1.752 1.764 1.764.6-.6-1.764-1.763 1.752-1.752-.588-.602zM116 24v1h14v-1h-14zm41.058-6.799l1.65 4.818h2.288l-5.632-16.038h-2.64l-5.72 16.038h2.178l1.694-4.818h6.182m-.572-1.716h-5.104l2.64-7.304 2.464 7.304"/><path d="M171 12l3.496 4L178 12h-7" fill="#787878"/><path d="M185.5 4.5h19v19h-19z" fill="#e0e0e0" stroke="#000"/><path d="M198.058 17.201l1.65 4.818h2.288l-5.632-16.038h-2.64l-5.72 16.038h2.178l1.694-4.818h6.182m-.572-1.716h-5.104l2.64-7.304 2.464 7.304"/><path d="M212 12l3.496 4L219 12h-7" fill="#787878"/><path d="M245 5.932c-.776 0-1.825.256-1.873 1.968h.705c.032-.528.169-1.351 1.145-1.351.64 0 1.119.456 1.119 1.064 0 .448-.264.831-.768 1.12l-.736.415c-1.184.672-1.528 1.208-1.592 2.456h3.775v-.696h-2.984c.072-.464.313-.784 1.025-1.168l.8-.431c.791-.432 1.2-1.017 1.2-1.713 0-.984-.744-1.664-1.816-1.664zm-13.797 2.304l3.852 5.655-4.07 5.873h2.09L236 15.342l2.883 4.422h2.133l-3.983-5.961 3.873-5.567h-2.068l-2.772 4.18-2.771-4.18h-2.092zm28 0l3.852 5.655-4.07 5.873h2.09L264 15.342l2.883 4.422h2.133l-3.983-5.961 3.873-5.567h-2.068l-2.772 4.18-2.771-4.18h-2.092zM273 16.463c-.776 0-1.823.255-1.871 1.967h.703c.032-.528.169-1.352 1.145-1.352.64 0 1.119.457 1.119 1.065 0 .448-.264.83-.768 1.119l-.736.416c-1.184.672-1.528 1.209-1.592 2.457h3.775v-.696h-2.982c.072-.464.311-.784 1.023-1.168l.8-.433c.791-.432 1.2-1.015 1.2-1.711 0-.984-.744-1.664-1.816-1.664zM283 7v2h18V7h-18zm0 3v2h12v-2h-12zm0 3v2h16v-2h-16zm0 3v2h12v-2h-12zm0 3v2h18v-2h-18zm28-12v2h18V7h-18zm3 3v2h12v-2h-12zm-2 3v2h16v-2h-16zm2 3v2h12v-2h-12zm-3 3v2h18v-2h-18zm28-12v2h18V7h-18zm6 3v2h12v-2h-12zm-4 3v2h16v-2h-16zm4 3v2h12v-2h-12zm-6 3v2h18v-2h-18zm28-12v2h18V7h-18zm0 3v2h18v-2h-18zm0 3v2h18v-2h-18zm0 3v2h18v-2h-18zm0 3v2h18v-2h-18zm28-12v2h18V7h-18zm6 3v2h12v-2h-12zm-6 .5v7l4-3.496-4-3.504zm6 2.5v2h12v-2h-12zm0 3v2h12v-2h-12zm-6 3v2h18v-2h-18zm28-12v2h18V7h-18zm6 3v2h12v-2h-12zm-2 .5l-4 3.504 4 3.496v-7zm2 2.5v2h12v-2h-12zm0 3v2h12v-2h-12zm-6 3v2h18v-2h-18zm57.5-12.5a1.5 1.5 0 1 0 0 3 1.5 1.5 0 0 0 0-3zm2.5 0v3h14v-3h-14zm-2.5 6a1.5 1.5 0 1 0 0 3 1.5 1.5 0 0 0 0-3zm2.5 0v3h14v-3h-14zm-2.5 6a1.5 1.5 0 1 0 0 3 1.5 1.5 0 0 0 0-3zm2.5 0v3h14v-3h-14zm24-5.5h18v2h-18z"/><path d="M534 6.5h20v15h-20z" fill="#e0e0e0" stroke="#000"/><path d="M540 8.5l-4.5 11h17l-5.5-6-3.438 3.75zm12.5 2a2 2 0 1 1-4 0 2 2 0 0 1 4 0z" fill="#3c3c3c"/><path d="M561 12l3.496 4L568 12h-7m41 0l3.496 4L609 12h-7" fill="#787878"/><path d="M711.264 8.758l-3.317 10.484h.77l3.318-10.484h-.771zm-3.905 3.568l-6.847 2.899v.966l6.847 2.899v-1.108l-5.517-2.294 5.517-2.254v-1.108zm5.282 0v1.108l5.517 2.295-5.517 2.253v1.108l6.845-2.899v-.966l-6.845-2.899zm-26.387-3.225l4.898 4.641-4.898 4.555v-2.149h-10.742c-.917 0-1.375.573-1.375 1.72v1.03h-1.29v-5.242c0-1.604.803-2.406 2.407-2.406h11V9.102m-36.508-.001l-4.898 4.641 4.898 4.555v-2.149h10.742c.917 0 1.375.573 1.375 1.72v1.03h1.29v-5.242c0-1.604-.803-2.406-2.407-2.406h-11V9.102M97.875 5.594c-3.52 0-5.688 1.814-5.688 4.718 0 .889.227 1.595.657 2.188h4.375l-.344-.094c-1.936-.528-2.656-1.143-2.656-2.375 0-1.628 1.438-2.719 3.594-2.719 2.551 0 3.977 1.16 4 3.25h1.937c-.022-3.145-2.179-4.968-5.875-4.968zM91 13.5v1h6.078l2.234.594c2.025.528 2.938 1.34 2.938 2.594 0 1.144-.618 2.906-4.094 2.906-3.63 0-4.531-2.06-4.531-3.688v-.125h-1.938c.067 4.554 3.572 5.625 6.344 5.625 5.016 0 6.281-2.948 6.281-4.906 0-1.23-.48-2.256-1.363-3H105v-1H91z"/><path d="M592.623 5.36a1.767 1.767 0 0 0-2.519 0l-4.552 4.552a1.767 1.767 0 0 0 0 2.52l1.017 1.016a1.767 1.767 0 0 0 2.519 0l4.552-4.552a1.767 1.767 0 0 0 0-2.52l-1.017-1.016zm-9.192 9.192a1.767 1.767 0 0 0-2.519 0l-4.552 4.552a1.767 1.767 0 0 0 0 2.52l1.016 1.016a1.767 1.767 0 0 0 2.52 0l4.552-4.552a1.767 1.767 0 0 0 0-2.52l-1.017-1.016z" fill="none" stroke="#000"/><path d="M588.975 9.68l.344.345a.755.755 0 0 1 0 1.07l-7.224 7.224a.755.755 0 0 1-1.07 0l-.344-.344a.755.755 0 0 1 0-1.07l7.224-7.224a.755.755 0 0 1 1.07 0z"/><path d="M633.624 5.36a1.767 1.767 0 0 0-2.52 0l-4.552 4.552a1.767 1.767 0 0 0 0 2.52l1.017 1.016a1.767 1.767 0 0 0 2.519 0l4.552-4.552a1.767 1.767 0 0 0 0-2.52l-1.016-1.016zm-9.193 9.192a1.767 1.767 0 0 0-2.519 0l-4.552 4.552a1.767 1.767 0 0 0 0 2.52l1.017 1.016a1.767 1.767 0 0 0 2.519 0l4.552-4.552a1.767 1.767 0 0 0 0-2.52l-1.017-1.016z" fill="none" stroke="#000"/><path d="M629.968 9.667a.744.744 0 0 0-1.061 0l-3.27 3.27 1.414 1.415 3.27-3.27a.744.744 0 0 0 0-1.061l-.353-.354zm-5.039 3.978l-3.248 3.248a.744.744 0 0 0 0 1.06l.354.354a.744.744 0 0 0 1.06 0l3.249-3.248-1.415-1.414zm10.139 5.307l-1.764 1.752-1.752-1.74-.588.588 1.752 1.752-1.764 1.764.6.588 1.752-1.752 1.764 1.764.6-.6-1.764-1.764 1.752-1.752-.588-.6"/><path d="M20.424 45.399c0-1.584-.858-2.838-2.662-3.894 1.584-1.012 2.2-1.936 2.2-3.3 0-1.474-1.012-4.224-5.236-4.224h-7.15v16.038h7.216c4.51 0 5.632-2.706 5.632-4.62m-9.548-8.668h3.586c1.518 0 2.332.638 2.332 1.826 0 1.166-.814 1.804-2.332 1.804h-3.586v-3.63m0 6.38h3.938c1.606 0 2.442.726 2.442 2.09 0 1.342-.836 2.068-2.442 2.068h-3.938v-4.158m33.863-9.13h-2.068l-3.41 16.038h2.068l3.41-16.038m19.101-.252v11.263c0 3.256 2.333 5.28 6.139 5.28 3.762 0 6.181-2.068 6.181-5.28V33.73h-2.047v11.263c0 2.156-1.56 3.477-4.134 3.477-2.354 0-4.092-1.057-4.092-3.477V33.73H63.84zM63 52v1h14v-1H63zm56.873-18.02l-.594 2.75h4.883l-2.838 13.29h3.301l2.838-13.29h4.664l.594-2.75h-12.848zm15.268 15.803l-1.764 1.752-1.754-1.738-.588.588 1.752 1.752-1.764 1.763.6.588 1.754-1.752 1.764 1.764.6-.6-1.764-1.763 1.752-1.752-.588-.602zM116 52v1h14v-1h-14zm41.058-6.799l1.65 4.818h2.288l-5.632-16.038h-2.64l-5.72 16.038h2.178l1.694-4.818h6.182m-.572-1.716h-5.104l2.64-7.304 2.464 7.304" opacity=".5"/><path d="M171 40l3.496 4L178 40h-7" fill="#787878"/><path d="M185.5 32.5h19v19h-19z" opacity=".5" fill="#e0e0e0" stroke="#000"/><path d="M198.058 45.201l1.65 4.818h2.288l-5.632-16.038h-2.64l-5.72 16.038h2.178l1.694-4.818h6.182m-.572-1.716h-5.104l2.64-7.304 2.464 7.304" opacity=".5"/><path d="M212 40l3.496 4L219 40h-7" fill="#787878"/><path d="M245 33.932c-.776 0-1.825.256-1.873 1.968h.705c.032-.528.169-1.351 1.145-1.351.64 0 1.119.456 1.119 1.064 0 .448-.264.831-.768 1.12l-.736.415c-1.184.672-1.528 1.208-1.592 2.456h3.775v-.696h-2.984c.072-.464.313-.784 1.025-1.168l.8-.431c.791-.432 1.2-1.017 1.2-1.713 0-.984-.744-1.664-1.816-1.664zm-13.797 2.304l3.852 5.655-4.07 5.873h2.09L236 43.342l2.883 4.422h2.133l-3.983-5.961 3.873-5.567h-2.068l-2.772 4.18-2.771-4.18h-2.092zm28 0l3.852 5.655-4.07 5.873h2.09L264 43.342l2.883 4.422h2.133l-3.983-5.961 3.873-5.567h-2.068l-2.772 4.18-2.771-4.18h-2.092zM273 44.463c-.776 0-1.823.255-1.871 1.967h.703c.032-.528.169-1.352 1.145-1.352.64 0 1.119.457 1.119 1.065 0 .448-.264.83-.768 1.119l-.736.416c-1.184.672-1.528 1.209-1.592 2.457h3.775v-.696h-2.982c.072-.464.311-.784 1.023-1.168l.8-.433c.791-.432 1.2-1.015 1.2-1.711 0-.984-.744-1.664-1.816-1.664zM283 35v2h18v-2h-18zm0 3v2h12v-2h-12zm0 3v2h16v-2h-16zm0 3v2h12v-2h-12zm0 3v2h18v-2h-18zm28-12v2h18v-2h-18zm3 3v2h12v-2h-12zm-2 3v2h16v-2h-16zm2 3v2h12v-2h-12zm-3 3v2h18v-2h-18zm28-12v2h18v-2h-18zm6 3v2h12v-2h-12zm-4 3v2h16v-2h-16zm4 3v2h12v-2h-12zm-6 3v2h18v-2h-18zm28-12v2h18v-2h-18zm0 3v2h18v-2h-18zm0 3v2h18v-2h-18zm0 3v2h18v-2h-18zm0 3v2h18v-2h-18zm28-12v2h18v-2h-18zm6 3v2h12v-2h-12zm-6 .5v7l4-3.496-4-3.504zm6 2.5v2h12v-2h-12zm0 3v2h12v-2h-12zm-6 3v2h18v-2h-18zm28-12v2h18v-2h-18zm6 3v2h12v-2h-12zm-2 .5l-4 3.504 4 3.496v-7zm2 2.5v2h12v-2h-12zm0 3v2h12v-2h-12zm-6 3v2h18v-2h-18zm57.5-12.5a1.5 1.5 0 1 0 0 3 1.5 1.5 0 0 0 0-3zm2.5 0v3h14v-3h-14zm-2.5 6a1.5 1.5 0 1 0 0 3 1.5 1.5 0 0 0 0-3zm2.5 0v3h14v-3h-14zm-2.5 6a1.5 1.5 0 1 0 0 3 1.5 1.5 0 0 0 0-3zm2.5 0v3h14v-3h-14zm24-5.5h18v2h-18z" opacity=".5"/><path d="M534 34.5h20v15h-20z" opacity=".5" fill="#e0e0e0" stroke="#000"/><path d="M540 36.5l-4.5 11h17l-5.5-6-3.438 3.75zm12.5 2a2 2 0 1 1-4 0 2 2 0 0 1 4 0z" opacity=".5" fill="#3c3c3c"/><path d="M561 40l3.496 4L568 40h-7m41 0l3.496 4L609 40h-7" fill="#787878"/><path d="M711.264 36.758l-3.317 10.484h.77l3.318-10.484h-.771zm-3.905 3.568l-6.847 2.899v.966l6.847 2.899v-1.108l-5.517-2.294 5.517-2.254v-1.108zm5.282 0v1.108l5.517 2.295-5.517 2.253v1.108l6.845-2.899v-.966l-6.845-2.899zm-26.387-3.224l4.898 4.64-4.898 4.555v-2.149h-10.742c-.917 0-1.375.573-1.375 1.72v1.03h-1.29v-5.242c0-1.604.803-2.406 2.407-2.406h11v-2.148m-36.508 0l-4.898 4.64 4.898 4.555v-2.149h10.742c.917 0 1.375.573 1.375 1.72v1.03h1.29v-5.242c0-1.604-.803-2.406-2.407-2.406h-11v-2.148M97.875 33.594c-3.52 0-5.688 1.814-5.688 4.718 0 .889.227 1.595.657 2.188h4.375l-.344-.094c-1.936-.528-2.656-1.143-2.656-2.375 0-1.628 1.438-2.718 3.594-2.718 2.551 0 3.977 1.16 4 3.25h1.937c-.022-3.147-2.179-4.97-5.875-4.97zM91 41.5v1h6.078l2.234.594c2.025.528 2.938 1.34 2.938 2.593 0 1.145-.618 2.907-4.094 2.907-3.63 0-4.531-2.06-4.531-3.688v-.125h-1.938c.067 4.554 3.572 5.625 6.344 5.625 5.016 0 6.281-2.948 6.281-4.906 0-1.23-.48-2.256-1.363-3H105v-1H91z" opacity=".5"/><path d="M592.623 33.36a1.767 1.767 0 0 0-2.519 0l-4.552 4.552a1.767 1.767 0 0 0 0 2.52l1.017 1.016a1.767 1.767 0 0 0 2.519 0l4.552-4.552a1.767 1.767 0 0 0 0-2.52l-1.017-1.016zm-9.192 9.192a1.767 1.767 0 0 0-2.519 0l-4.552 4.552a1.767 1.767 0 0 0 0 2.52l1.016 1.016a1.767 1.767 0 0 0 2.52 0l4.552-4.552a1.767 1.767 0 0 0 0-2.52l-1.017-1.016z" opacity=".5" fill="none" stroke="#000"/><path d="M588.975 37.68l.344.345a.755.755 0 0 1 0 1.07l-7.224 7.224a.755.755 0 0 1-1.07 0l-.344-.344a.755.755 0 0 1 0-1.07l7.224-7.224a.755.755 0 0 1 1.07 0z" opacity=".5"/><path d="M633.624 33.36a1.767 1.767 0 0 0-2.52 0l-4.552 4.552a1.767 1.767 0 0 0 0 2.52l1.017 1.016a1.767 1.767 0 0 0 2.519 0l4.552-4.552a1.767 1.767 0 0 0 0-2.52l-1.016-1.016zm-9.193 9.192a1.767 1.767 0 0 0-2.519 0l-4.552 4.552a1.767 1.767 0 0 0 0 2.52l1.017 1.016a1.767 1.767 0 0 0 2.519 0l4.552-4.552a1.767 1.767 0 0 0 0-2.52l-1.017-1.016z" opacity=".5" fill="none" stroke="#000"/><path d="M629.968 37.667a.744.744 0 0 0-1.061 0l-3.27 3.27 1.414 1.415 3.27-3.27a.744.744 0 0 0 0-1.061l-.353-.354zm-5.039 3.978l-3.248 3.248a.744.744 0 0 0 0 1.06l.354.354a.744.744 0 0 0 1.06 0l3.249-3.248-1.415-1.414zm10.139 5.307l-1.764 1.752-1.752-1.74-.588.588 1.752 1.752-1.764 1.764.6.588 1.752-1.752 1.764 1.764.6-.6-1.764-1.764 1.752-1.752-.588-.6" opacity=".5"/></svg>