<svg xmlns="http://www.w3.org/2000/svg" height="56" width="724"><path d="M451.914 33.785c-.137.525-.593.793-1.355.793v.582h1.06v3.055h.876v-4.43h-.582zM455 34.5v3h14v-3h-14zm-2.96 5.238c-.92 0-1.456.543-1.456 1.48 0 .04 0 .09.006.157h.838v-.144c0-.493.23-.78.63-.78.388 0 .626.268.626.712 0 .488-.15.688-1.13 1.375-.745.52-.983.906-1.027 1.725h3.012v-.78h-1.876c.375-.795 1.895-1.012 1.895-2.337 0-.857-.59-1.407-1.52-1.407zm2.96.762v3h14v-3h-14zm-3.004 5.166c-.57 0-1.437.212-1.437 1.412v.074h.81c.014-.475.113-.78.607-.78.35 0 .55.212.55.58 0 .445-.256.67-.775.67h-.076v.587c.306 0 .363.01.513.044.293.08.48.337.48.662 0 .387-.275.668-.656.668-.413 0-.637-.237-.662-.694h-.85c.006.888.588 1.444 1.494 1.444.944 0 1.55-.556 1.55-1.418 0-.52-.226-.856-.726-1.1.413-.256.582-.537.582-.943 0-.738-.55-1.207-1.406-1.207zM455 46.5v3h14v-3h-14z" opacity=".5"/><path d="M451.914 5.785c-.137.525-.593.793-1.355.793v.582h1.06v3.055h.876v-4.43h-.582zM455 6.5v3h14v-3h-14zm-2.96 5.238c-.92 0-1.456.543-1.456 1.48 0 .04 0 .09.006.157h.838v-.145c0-.493.23-.78.63-.78.388 0 .626.268.626.712 0 .488-.15.688-1.13 1.375-.745.52-.983.906-1.027 1.725h3.012v-.782h-1.876c.375-.793 1.895-1.01 1.895-2.336 0-.856-.59-1.406-1.52-1.406zm2.96.762v3h14v-3h-14zm-3.004 5.166c-.57 0-1.437.212-1.437 1.412v.074h.81c.014-.475.113-.78.607-.78.35 0 .55.212.55.58 0 .444-.256.67-.775.67h-.076v.587c.306 0 .363.01.513.044.293.08.48.337.48.662 0 .387-.275.668-.656.668-.413 0-.637-.237-.662-.694h-.85c.006.888.588 1.444 1.494 1.444.944 0 1.55-.556 1.55-1.418 0-.52-.226-.856-.726-1.1.413-.256.582-.537.582-.943 0-.738-.55-1.207-1.406-1.207zM455 18.5v3h14v-3h-14z"/><path d="M20.424 17.4c0-1.585-.858-2.84-2.662-3.895 1.584-1.012 2.2-1.936 2.2-3.3 0-1.474-1.012-4.224-5.236-4.224h-7.15v16.04h7.216c4.51 0 5.632-2.707 5.632-4.62m-9.548-8.67h3.586c1.518 0 2.332.64 2.332 1.827 0 1.166-.814 1.804-2.332 1.804h-3.586V8.73m0 6.38h3.938c1.606 0 2.442.727 2.442 2.09 0 1.343-.836 2.07-2.442 2.07h-3.938v-4.16" style="line-height:125%;-inkscape-font-specification:FreeSans Bold" font-size="22" font-weight="700" letter-spacing="0" word-spacing="0" font-family="FreeSans"/><path d="M44.74 5.98h-2.07l-3.41 16.04h2.07l3.41-16.04" style="line-height:125%;-inkscape-font-specification:FreeSans Italic" font-size="22" font-style="italic" font-weight="400" letter-spacing="0" word-spacing="0" font-family="FreeSans"/><path d="M63.84 5.73V16.99c0 3.256 2.333 5.28 6.14 5.28 3.76 0 6.18-2.068 6.18-5.28V5.73h-2.047V16.99c0 2.156-1.56 3.477-4.134 3.477-2.355 0-4.093-1.058-4.093-3.478V5.73H63.84zM63 24v1h14v-1H63z" style="line-height:125%;-inkscape-font-specification:FreeSans" font-size="22" font-weight="400" letter-spacing="0" word-spacing="0" font-family="FreeSans"/><path d="M119.873 5.98l-.594 2.75h4.882l-2.838 13.29h3.3l2.84-13.29h4.663l.594-2.75h-12.847zm15.268 15.803l-1.763 1.752-1.754-1.738-.588.588 1.752 1.752-1.764 1.763.6.588 1.754-1.752 1.764 1.764.6-.6-1.763-1.763 1.752-1.752-.59-.602zM116 24v1h14v-1h-14z" style="line-height:125%;-inkscape-font-specification:FreeSans Bold Italic" font-size="22" font-style="italic" font-weight="700" letter-spacing="0" word-spacing="0" font-family="FreeSans"/><path d="M157.058 17.2l1.65 4.82h2.288l-5.632-16.04h-2.64l-5.72 16.04h2.178l1.694-4.82h6.182m-.572-1.715h-5.104l2.64-7.304 2.464 7.305" style="line-height:125%;-inkscape-font-specification:FreeSans" font-size="22" font-weight="400" letter-spacing="0" word-spacing="0" font-family="FreeSans"/><path style="line-height:125%;-inkscape-font-specification:FreeSans" d="M171 12l3.496 4L178 12h-7" font-size="9.276" font-weight="400" letter-spacing="0" word-spacing="0" fill="#787878" font-family="FreeSans"/><path d="M185.5 4.5h19v19h-19z" fill="#e0e0e0" stroke="#000"/><path d="M198.058 17.2l1.65 4.82h2.288l-5.632-16.04h-2.64l-5.72 16.04h2.178l1.694-4.82h6.182m-.572-1.715h-5.104l2.64-7.304 2.464 7.305" style="line-height:125%;-inkscape-font-specification:FreeSans" font-size="22" font-weight="400" letter-spacing="0" word-spacing="0" font-family="FreeSans"/><path style="line-height:125%;-inkscape-font-specification:FreeSans" d="M212 12l3.496 4L219 12h-7" font-size="9.276" font-weight="400" letter-spacing="0" word-spacing="0" fill="#787878" font-family="FreeSans"/><path d="M245 5.932c-.776 0-1.825.256-1.873 1.968h.705c.032-.528.17-1.35 1.145-1.35.64 0 1.12.455 1.12 1.063 0 .448-.265.83-.77 1.12l-.735.415c-1.184.672-1.528 1.208-1.592 2.456h3.775v-.696h-2.984c.073-.464.314-.784 1.026-1.168l.8-.43c.79-.433 1.2-1.018 1.2-1.714 0-.984-.744-1.664-1.816-1.664zm-13.797 2.304l3.852 5.655-4.07 5.874h2.09L236 15.342l2.883 4.422h2.133l-3.983-5.96 3.873-5.568h-2.068l-2.772 4.18-2.77-4.18h-2.093zM259.203 8.236l3.852 5.655-4.07 5.874h2.09L264 15.342l2.883 4.422h2.133l-3.983-5.96 3.873-5.568h-2.068l-2.772 4.18-2.77-4.18h-2.093zM273 16.463c-.776 0-1.823.255-1.87 1.967h.702c.032-.528.17-1.352 1.145-1.352.64 0 1.12.457 1.12 1.065 0 .448-.265.83-.77 1.12l-.735.415c-1.184.672-1.528 1.21-1.592 2.457h3.775v-.696h-2.982c.072-.465.31-.785 1.023-1.17l.8-.432c.79-.432 1.2-1.015 1.2-1.71 0-.985-.744-1.665-1.816-1.665z" style="line-height:125%;-inkscape-font-specification:FreeSans" font-size="22" font-weight="400" letter-spacing="0" word-spacing="0" font-family="FreeSans"/><path d="M283 7v2h18V7h-18zm0 3v2h12v-2h-12zm0 3v2h16v-2h-16zm0 3v2h12v-2h-12zm0 3v2h18v-2h-18zM311 7v2h18V7h-18zm3 3v2h12v-2h-12zm-2 3v2h16v-2h-16zm2 3v2h12v-2h-12zm-3 3v2h18v-2h-18zM339 7v2h18V7h-18zm6 3v2h12v-2h-12zm-4 3v2h16v-2h-16zm4 3v2h12v-2h-12zm-6 3v2h18v-2h-18zM367 7v2h18V7h-18zm0 3v2h18v-2h-18zm0 3v2h18v-2h-18zm0 3v2h18v-2h-18zm0 3v2h18v-2h-18zM395 7v2h18V7h-18zm6 3v2h12v-2h-12zm-6 .5v7l4-3.496-4-3.504zm6 2.5v2h12v-2h-12zm0 3v2h12v-2h-12zm-6 3v2h18v-2h-18zM423 7v2h18V7h-18zm6 3v2h12v-2h-12zm-2 .5l-4 3.504 4 3.496v-7zm2 2.5v2h12v-2h-12zm0 3v2h12v-2h-12zm-6 3v2h18v-2h-18zM480.5 6.5a1.5 1.5 0 1 0 0 3 1.5 1.5 0 0 0 0-3zm2.5 0v3h14v-3h-14zm-2.5 6a1.5 1.5 0 1 0 0 3 1.5 1.5 0 0 0 0-3zm2.5 0v3h14v-3h-14zm-2.5 6a1.5 1.5 0 1 0 0 3 1.5 1.5 0 0 0 0-3zm2.5 0v3h14v-3h-14zM507 13h18v2h-18z"/><path d="M534 6.5h20v15h-20z" fill="#e0e0e0" stroke="#000"/><path d="M540 8.5l-4.5 11h17l-5.5-6-3.438 3.75z" style="line-height:125%;-inkscape-font-specification:FreeSans" font-size="9.276" font-weight="400" letter-spacing="0" word-spacing="0" fill="#3c3c3c" font-family="FreeSans"/><path d="M552.5 10.5a2 2 0 1 1-4 0 2 2 0 0 1 4 0z" fill="#3c3c3c"/><path style="line-height:125%;-inkscape-font-specification:FreeSans" d="M561 12l3.496 4L568 12h-7M602 12l3.496 4L609 12h-7" font-size="9.276" font-weight="400" letter-spacing="0" word-spacing="0" fill="#787878" font-family="FreeSans"/><path d="M711.264 8.758l-3.317 10.484h.77l3.318-10.484h-.77zm-3.905 3.568l-6.848 2.9v.965l6.847 2.9v-1.108l-5.518-2.294 5.517-2.254v-1.108zm5.28 0v1.108l5.518 2.295-5.517 2.252v1.108l6.846-2.9v-.965l-6.845-2.9z" style="line-height:125%;-inkscape-font-specification:FreeSans" font-size="14" font-weight="400" letter-spacing="0" word-spacing="0" font-family="FreeSans"/><path d="M686.254 9.1l4.898 4.642-4.898 4.555v-2.15h-10.742c-.917 0-1.375.574-1.375 1.72v1.03h-1.29v-5.24c0-1.605.803-2.407 2.407-2.407h11V9.1M649.746 9.1l-4.898 4.642 4.898 4.555v-2.15h10.742c.917 0 1.375.574 1.375 1.72v1.03h1.29v-5.24c0-1.605-.803-2.407-2.407-2.407h-11V9.1M97.875 5.594c-3.52 0-5.688 1.814-5.688 4.718 0 .89.227 1.595.657 2.188h4.375l-.345-.094c-1.936-.528-2.656-1.143-2.656-2.375 0-1.627 1.437-2.717 3.593-2.717 2.552 0 3.977 1.16 4 3.25h1.937c-.022-3.147-2.18-4.97-5.875-4.97zM91 13.5v1h6.078l2.234.594c2.025.528 2.938 1.34 2.938 2.594 0 1.143-.618 2.906-4.094 2.906-3.63 0-4.53-2.06-4.53-3.688v-.125h-1.94c.067 4.555 3.573 5.626 6.345 5.626 5.017 0 6.282-2.948 6.282-4.906 0-1.23-.48-2.256-1.363-3H105v-1H91z" style="line-height:125%;-inkscape-font-specification:FreeSans" font-size="22" font-weight="400" letter-spacing="0" word-spacing="0" font-family="FreeSans"/><path d="M592.623 5.36a1.767 1.767 0 0 0-2.52 0l-4.55 4.552a1.767 1.767 0 0 0 0 2.52l1.016 1.016a1.767 1.767 0 0 0 2.518 0l4.552-4.552a1.767 1.767 0 0 0 0-2.52l-1.017-1.016zm-9.192 9.192a1.767 1.767 0 0 0-2.518 0l-4.552 4.552a1.767 1.767 0 0 0 0 2.52l1.016 1.016a1.767 1.767 0 0 0 2.52 0l4.552-4.552a1.767 1.767 0 0 0 0-2.52l-1.017-1.016z" fill="none" stroke="#000"/><path d="M588.975 9.68l.344.345a.755.755 0 0 1 0 1.07l-7.225 7.224a.755.755 0 0 1-1.07 0l-.344-.345a.755.755 0 0 1 0-1.07l7.225-7.224a.755.755 0 0 1 1.07 0z"/><path d="M633.624 5.36a1.767 1.767 0 0 0-2.52 0l-4.552 4.552a1.767 1.767 0 0 0 0 2.52l1.017 1.016a1.767 1.767 0 0 0 2.518 0l4.552-4.552a1.767 1.767 0 0 0 0-2.52l-1.016-1.016zm-9.193 9.192a1.767 1.767 0 0 0-2.518 0l-4.552 4.552a1.767 1.767 0 0 0 0 2.52l1.017 1.016a1.767 1.767 0 0 0 2.52 0l4.55-4.552a1.767 1.767 0 0 0 0-2.52l-1.016-1.016z" fill="none" stroke="#000"/><path d="M629.968 9.667a.744.744 0 0 0-1.06 0l-3.27 3.27 1.413 1.415 3.27-3.27a.744.744 0 0 0 0-1.06l-.352-.355zm-5.04 3.978l-3.247 3.248a.744.744 0 0 0 0 1.06l.355.354a.744.744 0 0 0 1.06 0l3.25-3.248-1.416-1.415z"/><path d="M635.068 18.952l-1.764 1.752-1.752-1.74-.588.588 1.752 1.752-1.764 1.764.6.588 1.752-1.752 1.764 1.764.6-.6-1.764-1.764 1.752-1.752-.588-.6" style="line-height:125%;-inkscape-font-specification:FreeSans" font-size="12" font-weight="400" letter-spacing="0" word-spacing="0" font-family="FreeSans"/><path d="M20.424 45.4c0-1.585-.858-2.84-2.662-3.895 1.584-1.012 2.2-1.936 2.2-3.3 0-1.474-1.012-4.224-5.236-4.224h-7.15v16.04h7.216c4.51 0 5.632-2.707 5.632-4.62m-9.548-8.67h3.586c1.518 0 2.332.64 2.332 1.827 0 1.166-.814 1.804-2.332 1.804h-3.586v-3.63m0 6.38h3.938c1.606 0 2.442.727 2.442 2.09 0 1.343-.836 2.07-2.442 2.07h-3.938v-4.16" style="line-height:125%;-inkscape-font-specification:FreeSans Bold" font-size="22" font-weight="700" letter-spacing="0" word-spacing="0" font-family="FreeSans" opacity=".5"/><path d="M44.74 33.98h-2.07l-3.41 16.04h2.07l3.41-16.04" style="line-height:125%;-inkscape-font-specification:FreeSans Italic" font-size="22" font-style="italic" font-weight="400" letter-spacing="0" word-spacing="0" font-family="FreeSans" opacity=".5"/><path d="M63.84 33.73V44.99c0 3.256 2.333 5.28 6.14 5.28 3.76 0 6.18-2.068 6.18-5.28V33.73h-2.047V44.99c0 2.156-1.56 3.477-4.134 3.477-2.355 0-4.093-1.058-4.093-3.478V33.73H63.84zM63 52v1h14v-1H63z" style="line-height:125%;-inkscape-font-specification:FreeSans" font-size="22" font-weight="400" letter-spacing="0" word-spacing="0" font-family="FreeSans" opacity=".5"/><path d="M119.873 33.98l-.594 2.75h4.882l-2.838 13.29h3.3l2.84-13.29h4.663l.594-2.75h-12.847zm15.268 15.803l-1.763 1.752-1.754-1.738-.588.588 1.752 1.752-1.764 1.763.6.588 1.754-1.752 1.764 1.764.6-.6-1.763-1.763 1.752-1.752-.59-.602zM116 52v1h14v-1h-14z" style="line-height:125%;-inkscape-font-specification:FreeSans Bold Italic" font-size="22" font-style="italic" font-weight="700" letter-spacing="0" word-spacing="0" font-family="FreeSans" opacity=".5"/><path d="M157.058 45.2l1.65 4.82h2.288l-5.632-16.04h-2.64l-5.72 16.04h2.178l1.694-4.82h6.182m-.572-1.715h-5.104l2.64-7.304 2.464 7.305" style="line-height:125%;-inkscape-font-specification:FreeSans" font-size="22" font-weight="400" letter-spacing="0" word-spacing="0" font-family="FreeSans" opacity=".5"/><path style="line-height:125%;-inkscape-font-specification:FreeSans" d="M171 40l3.496 4L178 40h-7" font-size="9.276" font-weight="400" letter-spacing="0" word-spacing="0" fill="#787878" font-family="FreeSans"/><path d="M185.5 32.5h19v19h-19z" fill="#e0e0e0" stroke="#000" opacity=".5"/><path d="M198.058 45.2l1.65 4.82h2.288l-5.632-16.04h-2.64l-5.72 16.04h2.178l1.694-4.82h6.182m-.572-1.715h-5.104l2.64-7.304 2.464 7.305" style="line-height:125%;-inkscape-font-specification:FreeSans" font-size="22" font-weight="400" letter-spacing="0" word-spacing="0" font-family="FreeSans" opacity=".5"/><path style="line-height:125%;-inkscape-font-specification:FreeSans" d="M212 40l3.496 4L219 40h-7" font-size="9.276" font-weight="400" letter-spacing="0" word-spacing="0" fill="#787878" font-family="FreeSans"/><path d="M245 33.932c-.776 0-1.825.256-1.873 1.968h.705c.032-.528.17-1.35 1.145-1.35.64 0 1.12.455 1.12 1.063 0 .448-.265.83-.77 1.12l-.735.415c-1.184.672-1.528 1.208-1.592 2.456h3.775v-.696h-2.984c.073-.464.314-.784 1.026-1.168l.8-.43c.79-.433 1.2-1.018 1.2-1.714 0-.984-.744-1.664-1.816-1.664zm-13.797 2.304l3.852 5.655-4.07 5.874h2.09L236 43.342l2.883 4.422h2.133l-3.983-5.96 3.873-5.568h-2.068l-2.772 4.18-2.77-4.18h-2.093zM259.203 36.236l3.852 5.655-4.07 5.874h2.09L264 43.342l2.883 4.422h2.133l-3.983-5.96 3.873-5.568h-2.068l-2.772 4.18-2.77-4.18h-2.093zM273 44.463c-.776 0-1.823.255-1.87 1.967h.702c.032-.528.17-1.352 1.145-1.352.64 0 1.12.457 1.12 1.065 0 .448-.265.83-.77 1.12l-.735.415c-1.184.672-1.528 1.21-1.592 2.457h3.775v-.696h-2.982c.072-.465.31-.785 1.023-1.17l.8-.432c.79-.432 1.2-1.015 1.2-1.71 0-.985-.744-1.665-1.816-1.665z" style="line-height:125%;-inkscape-font-specification:FreeSans" font-size="22" font-weight="400" letter-spacing="0" word-spacing="0" font-family="FreeSans" opacity=".5"/><path d="M283 35v2h18v-2h-18zm0 3v2h12v-2h-12zm0 3v2h16v-2h-16zm0 3v2h12v-2h-12zm0 3v2h18v-2h-18zM311 35v2h18v-2h-18zm3 3v2h12v-2h-12zm-2 3v2h16v-2h-16zm2 3v2h12v-2h-12zm-3 3v2h18v-2h-18zM339 35v2h18v-2h-18zm6 3v2h12v-2h-12zm-4 3v2h16v-2h-16zm4 3v2h12v-2h-12zm-6 3v2h18v-2h-18zM367 35v2h18v-2h-18zm0 3v2h18v-2h-18zm0 3v2h18v-2h-18zm0 3v2h18v-2h-18zm0 3v2h18v-2h-18zM395 35v2h18v-2h-18zm6 3v2h12v-2h-12zm-6 .5v7l4-3.496-4-3.504zm6 2.5v2h12v-2h-12zm0 3v2h12v-2h-12zm-6 3v2h18v-2h-18zM423 35v2h18v-2h-18zm6 3v2h12v-2h-12zm-2 .5l-4 3.504 4 3.496v-7zm2 2.5v2h12v-2h-12zm0 3v2h12v-2h-12zm-6 3v2h18v-2h-18zM480.5 34.5a1.5 1.5 0 1 0 0 3 1.5 1.5 0 0 0 0-3zm2.5 0v3h14v-3h-14zm-2.5 6a1.5 1.5 0 1 0 0 3 1.5 1.5 0 0 0 0-3zm2.5 0v3h14v-3h-14zm-2.5 6a1.5 1.5 0 1 0 0 3 1.5 1.5 0 0 0 0-3zm2.5 0v3h14v-3h-14zM507 41h18v2h-18z" opacity=".5"/><path d="M534 34.5h20v15h-20z" fill="#e0e0e0" stroke="#000" opacity=".5"/><path d="M540 36.5l-4.5 11h17l-5.5-6-3.438 3.75z" style="line-height:125%;-inkscape-font-specification:FreeSans" font-size="9.276" font-weight="400" letter-spacing="0" word-spacing="0" fill="#3c3c3c" font-family="FreeSans" opacity=".5"/><path d="M552.5 38.5a2 2 0 1 1-4 0 2 2 0 0 1 4 0z" fill="#3c3c3c" opacity=".5"/><path style="line-height:125%;-inkscape-font-specification:FreeSans" d="M561 40l3.496 4L568 40h-7M602 40l3.496 4L609 40h-7" font-size="9.276" font-weight="400" letter-spacing="0" word-spacing="0" fill="#787878" font-family="FreeSans"/><path d="M711.264 36.758l-3.317 10.484h.77l3.318-10.484h-.77zm-3.905 3.568l-6.848 2.9v.965l6.847 2.9v-1.108l-5.518-2.294 5.517-2.254v-1.108zm5.28 0v1.108l5.518 2.295-5.517 2.252v1.108l6.846-2.9v-.965l-6.845-2.9z" style="line-height:125%;-inkscape-font-specification:FreeSans" font-size="14" font-weight="400" letter-spacing="0" word-spacing="0" font-family="FreeSans" opacity=".5"/><path d="M686.254 37.1l4.898 4.642-4.898 4.555v-2.15h-10.742c-.917 0-1.375.574-1.375 1.72v1.03h-1.29v-5.24c0-1.605.803-2.407 2.407-2.407h11v-2.148M649.746 37.1l-4.898 4.642 4.898 4.555v-2.15h10.742c.917 0 1.375.574 1.375 1.72v1.03h1.29v-5.24c0-1.605-.803-2.407-2.407-2.407h-11V37.1M97.875 33.594c-3.52 0-5.688 1.814-5.688 4.718 0 .89.227 1.595.657 2.188h4.375l-.345-.094c-1.936-.528-2.656-1.143-2.656-2.375 0-1.627 1.437-2.718 3.593-2.718 2.552 0 3.977 1.16 4 3.25h1.937c-.022-3.145-2.18-4.968-5.875-4.968zM91 41.5v1h6.078l2.234.594c2.025.528 2.938 1.34 2.938 2.593 0 1.145-.618 2.907-4.094 2.907-3.63 0-4.53-2.06-4.53-3.688v-.125h-1.94c.067 4.555 3.573 5.626 6.345 5.626 5.017 0 6.282-2.948 6.282-4.906 0-1.23-.48-2.256-1.363-3H105v-1H91z" style="line-height:125%;-inkscape-font-specification:FreeSans" font-size="22" font-weight="400" letter-spacing="0" word-spacing="0" font-family="FreeSans" opacity=".5"/><path d="M592.623 33.36a1.767 1.767 0 0 0-2.52 0l-4.55 4.552a1.767 1.767 0 0 0 0 2.52l1.016 1.016a1.767 1.767 0 0 0 2.518 0l4.552-4.552a1.767 1.767 0 0 0 0-2.52l-1.017-1.016zm-9.192 9.192a1.767 1.767 0 0 0-2.518 0l-4.552 4.552a1.767 1.767 0 0 0 0 2.52l1.016 1.016a1.767 1.767 0 0 0 2.52 0l4.552-4.552a1.767 1.767 0 0 0 0-2.52l-1.017-1.016z" fill="none" stroke="#000" opacity=".5"/><path d="M588.975 37.68l.344.345a.755.755 0 0 1 0 1.07l-7.225 7.224a.755.755 0 0 1-1.07 0l-.344-.345a.755.755 0 0 1 0-1.07l7.225-7.224a.755.755 0 0 1 1.07 0z" opacity=".5"/><path d="M633.624 33.36a1.767 1.767 0 0 0-2.52 0l-4.552 4.552a1.767 1.767 0 0 0 0 2.52l1.017 1.016a1.767 1.767 0 0 0 2.518 0l4.552-4.552a1.767 1.767 0 0 0 0-2.52l-1.016-1.016zm-9.193 9.192a1.767 1.767 0 0 0-2.518 0l-4.552 4.552a1.767 1.767 0 0 0 0 2.52l1.017 1.016a1.767 1.767 0 0 0 2.52 0l4.55-4.552a1.767 1.767 0 0 0 0-2.52l-1.016-1.016z" fill="none" stroke="#000" opacity=".5"/><path d="M629.968 37.667a.744.744 0 0 0-1.06 0l-3.27 3.27 1.413 1.415 3.27-3.27a.744.744 0 0 0 0-1.06l-.352-.355zm-5.04 3.978l-3.247 3.248a.744.744 0 0 0 0 1.06l.355.354a.744.744 0 0 0 1.06 0l3.25-3.248-1.416-1.415z" opacity=".5"/><path d="M635.068 46.952l-1.764 1.752-1.752-1.74-.588.588 1.752 1.752-1.764 1.764.6.588 1.752-1.752 1.764 1.764.6-.6-1.764-1.764 1.752-1.752-.588-.6" style="line-height:125%;-inkscape-font-specification:FreeSans" font-size="12" font-weight="400" letter-spacing="0" word-spacing="0" font-family="FreeSans" opacity=".5"/></svg>