<?xml version="1.0" encoding="UTF-8" standalone="no"?>
<svg
   xmlns:dc="http://purl.org/dc/elements/1.1/"
   xmlns:cc="http://creativecommons.org/ns#"
   xmlns:rdf="http://www.w3.org/1999/02/22-rdf-syntax-ns#"
   xmlns:svg="http://www.w3.org/2000/svg"
   xmlns="http://www.w3.org/2000/svg"
   version="1.1"
   id="svg2"
   height="56"
   width="724">
  <defs
     id="defs4" />
  <metadata
     id="metadata7">
    <rdf:RDF>
      <cc:Work
         rdf:about="">
        <dc:format>image/svg+xml</dc:format>
        <dc:type
           rdf:resource="http://purl.org/dc/dcmitype/StillImage" />
        <dc:title></dc:title>
      </cc:Work>
    </rdf:RDF>
  </metadata>
  <g
     transform="translate(0,-996.3622)"
     id="layer1">
    <path
       id="rect3022-5-0-7-3-8-4-5-7-9-5"
       d="m 451.91406,1030.1474 c -0.1375,0.525 -0.59297,0.7929 -1.35547,0.7929 l 0,0.5821 1.0625,0 0,3.0547 0.875,0 0,-4.4297 -0.58203,0 z m 3.08594,0.7148 0,3 14,0 0,-3 -14,0 z m -2.96094,5.2383 c -0.91875,0 -1.45508,0.543 -1.45508,1.4805 0,0.038 -1.4e-4,0.088 0.006,0.1562 l 0.83789,0 0,-0.1445 c 0,-0.4938 0.23086,-0.7813 0.63086,-0.7813 0.3875,0 0.625,0.2692 0.625,0.7129 0,0.4875 -0.14961,0.6875 -1.13086,1.375 -0.74375,0.5188 -0.98164,0.9059 -1.02539,1.7246 l 3.01172,0 0,-0.7812 -1.875,0 c 0.375,-0.7938 1.89453,-1.011 1.89453,-2.336 0,-0.8563 -0.58828,-1.4062 -1.51953,-1.4062 z m 2.96094,0.7617 0,3 14,0 0,-3 -14,0 z m -3.00391,5.166 c -0.56875,0 -1.4375,0.2121 -1.4375,1.4121 l 0,0.074 0.8125,0 c 0.0125,-0.475 0.11172,-0.7813 0.60547,-0.7813 0.35,0 0.55078,0.2132 0.55078,0.582 0,0.4437 -0.25664,0.668 -0.77539,0.668 l -0.0762,0 0,0.5879 c 0.30625,0 0.36367,0.011 0.51367,0.045 0.29375,0.081 0.48047,0.3371 0.48047,0.6621 0,0.3875 -0.275,0.668 -0.65625,0.668 -0.4125,0 -0.63711,-0.2372 -0.66211,-0.6934 l -0.84961,0 c 0.006,0.8875 0.58789,1.4434 1.49414,1.4434 0.94375,0 1.54883,-0.5555 1.54883,-1.418 0,-0.5188 -0.22461,-0.8559 -0.72461,-1.0996 0.4125,-0.2563 0.58203,-0.537 0.58203,-0.9433 0,-0.7375 -0.55,-1.2071 -1.40625,-1.2071 z m 3.00391,0.834 0,3 14,0 0,-3 -14,0 z"
       style="fill:#000000;fill-opacity:1;stroke:none;opacity:0.5" />
    <path
       id="rect3022-5-0-7-3-8-4-5-7-9"
       d="m 451.91405,1002.1474 c -0.1375,0.525 -0.59297,0.7929 -1.35547,0.7929 l 0,0.5821 1.0625,0 0,3.0547 0.875,0 0,-4.4297 -0.58203,0 z m 3.08594,0.7148 0,3 14,0 0,-3 -14,0 z m -2.96094,5.2383 c -0.91875,0 -1.45508,0.543 -1.45508,1.4805 0,0.038 -1.4e-4,0.088 0.006,0.1562 l 0.83789,0 0,-0.1445 c 0,-0.4938 0.23086,-0.7813 0.63086,-0.7813 0.3875,0 0.625,0.2692 0.625,0.7129 0,0.4875 -0.14961,0.6875 -1.13086,1.375 -0.74375,0.5188 -0.98164,0.9059 -1.02539,1.7246 l 3.01172,0 0,-0.7812 -1.875,0 c 0.375,-0.7938 1.89453,-1.011 1.89453,-2.336 0,-0.8563 -0.58828,-1.4062 -1.51953,-1.4062 z m 2.96094,0.7617 0,3 14,0 0,-3 -14,0 z m -3.00391,5.166 c -0.56875,0 -1.4375,0.2121 -1.4375,1.4121 l 0,0.074 0.8125,0 c 0.0125,-0.475 0.11172,-0.7813 0.60547,-0.7813 0.35,0 0.55078,0.2132 0.55078,0.582 0,0.4437 -0.25664,0.668 -0.77539,0.668 l -0.0762,0 0,0.5879 c 0.30625,0 0.36367,0.011 0.51367,0.045 0.29375,0.081 0.48047,0.3371 0.48047,0.6621 0,0.3875 -0.275,0.668 -0.65625,0.668 -0.4125,0 -0.63711,-0.2372 -0.66211,-0.6934 l -0.84961,0 c 0.006,0.8875 0.58789,1.4434 1.49414,1.4434 0.94375,0 1.54883,-0.5555 1.54883,-1.418 0,-0.5188 -0.22461,-0.8559 -0.72461,-1.0996 0.4125,-0.2563 0.58203,-0.537 0.58203,-0.9433 0,-0.7375 -0.55,-1.2071 -1.40625,-1.2071 z m 3.00391,0.834 0,3 14,0 0,-3 -14,0 z"
       style="fill:#000000;fill-opacity:1;stroke:none" />
    <path
       d="m 20.424,1013.7612 c 0,-1.584 -0.858002,-2.838 -2.662,-3.894 1.583998,-1.012 2.2,-1.936 2.2,-3.3 0,-1.474 -1.012004,-4.224 -5.236,-4.224 l -7.1500002,0 0,16.038 7.2160002,0 c 4.509995,0 5.632,-2.706 5.632,-4.62 m -9.548,-8.668 3.586,0 c 1.517998,0 2.332,0.638 2.332,1.826 0,1.166 -0.814002,1.804 -2.332,1.804 l -3.586,0 0,-3.63 m 0,6.38 3.938,0 c 1.605998,0 2.442,0.726 2.442,2.09 0,1.342 -0.836002,2.068 -2.442,2.068 l -3.938,0 0,-4.158"
       style="font-size:22px;font-style:normal;font-variant:normal;font-weight:bold;font-stretch:normal;line-height:125%;letter-spacing:0px;word-spacing:0px;fill:#000000;fill-opacity:1;stroke:none;font-family:FreeSans;-inkscape-font-specification:FreeSans Bold"
       id="path-bold" />
    <path
       d="m 44.739001,1002.3432 -2.068,0 -3.41,16.038 2.068,0 3.41,-16.038"
       style="font-size:22px;font-style:italic;font-variant:normal;font-weight:normal;font-stretch:normal;line-height:125%;letter-spacing:0px;word-spacing:0px;fill:#000000;fill-opacity:1;stroke:none;font-family:FreeSans;-inkscape-font-specification:FreeSans Italic"
       id="path-italic" />
    <path
       id="path-underline"
       transform="translate(0,996.3622)"
       d="M 63.839844 5.7285156 L 63.839844 16.992188 C 63.839844 20.248187 66.17252 22.271484 69.978516 22.271484 C 73.740512 22.271484 76.160156 20.204187 76.160156 16.992188 L 76.160156 5.7285156 L 74.113281 5.7285156 L 74.113281 16.992188 C 74.113281 19.148187 72.552514 20.46875 69.978516 20.46875 C 67.624519 20.46875 65.886719 19.412187 65.886719 16.992188 L 65.886719 5.7285156 L 63.839844 5.7285156 z M 63 24 L 63 25 L 77 25 L 77 24 L 63 24 z "
       style="font-size:22px;font-style:normal;font-variant:normal;font-weight:normal;font-stretch:normal;line-height:125%;letter-spacing:0px;word-spacing:0px;fill:#000000;fill-opacity:1;stroke:none;font-family:FreeSans;-inkscape-font-specification:FreeSans" />
    <path
       id="path-removeformat"
       transform="translate(0,996.3622)"
       d="M 119.87305 5.9804688 L 119.2793 8.7304688 L 124.16211 8.7304688 L 121.32422 22.019531 L 124.625 22.019531 L 127.46289 8.7304688 L 132.12695 8.7304688 L 132.7207 5.9804688 L 119.87305 5.9804688 z M 135.14062 21.783203 L 133.37695 23.535156 L 131.62305 21.796875 L 131.03516 22.384766 L 132.78711 24.136719 L 131.02344 25.900391 L 131.62305 26.488281 L 133.37695 24.736328 L 135.14062 26.5 L 135.74023 25.900391 L 133.97656 24.136719 L 135.72852 22.384766 L 135.14062 21.783203 z M 116 24 L 116 25 L 130 25 L 130 24 L 116 24 z "
       style="font-size:22px;font-style:italic;font-variant:normal;font-weight:bold;font-stretch:normal;line-height:125%;letter-spacing:0px;word-spacing:0px;fill:#000000;fill-opacity:1;stroke:none;font-family:FreeSans;-inkscape-font-specification:FreeSans Bold Italic" />
    <path
       d="m 157.058,1013.5632 1.65,4.818 2.288,0 -5.632,-16.038 -2.64,0 -5.72,16.038 2.178,0 1.694,-4.818 6.182,0 m -0.572,-1.716 -5.104,0 2.64,-7.304 2.464,7.304"
       style="font-size:22px;font-style:normal;font-variant:normal;font-weight:normal;font-stretch:normal;line-height:125%;letter-spacing:0px;word-spacing:0px;fill:#000000;fill-opacity:1;stroke:none;font-family:FreeSans;-inkscape-font-specification:FreeSans"
       id="path-forecolor" />
    <path
       style="font-size:9.27647018px;font-style:normal;font-variant:normal;font-weight:normal;font-stretch:normal;line-height:125%;letter-spacing:0px;word-spacing:0px;fill:#787878;fill-opacity:1;stroke:none;font-family:FreeSans;-inkscape-font-specification:FreeSans"
       d="m 171,1008.3622 3.49574,4 3.50426,-4 -7,0"
       id="path-forecolor-pulldown" />
    <path
       id="rect3108"
       d="m 185.5,1000.8622 19,0 0,19 -19,0 z"
       style="fill:#e0e0e0;fill-opacity:1;stroke:#000000;stroke-opacity:1" />
    <path
       d="m 198.058,1013.5632 1.65,4.818 2.288,0 -5.632,-16.038 -2.64,0 -5.72,16.038 2.178,0 1.694,-4.818 6.182,0 m -0.572,-1.716 -5.104,0 2.64,-7.304 2.464,7.304"
       style="font-size:22px;font-style:normal;font-variant:normal;font-weight:normal;font-stretch:normal;line-height:125%;letter-spacing:0px;word-spacing:0px;fill:#000000;fill-opacity:1;stroke:none;font-family:FreeSans;-inkscape-font-specification:FreeSans"
       id="path4254" />
    <path
       style="font-size:9.27647018px;font-style:normal;font-variant:normal;font-weight:normal;font-stretch:normal;line-height:125%;letter-spacing:0px;word-spacing:0px;fill:#787878;fill-opacity:1;stroke:none;font-family:FreeSans;-inkscape-font-specification:FreeSans"
       d="m 212,1008.3622 3.49574,4 3.50426,-4 -7,0"
       id="path3937-7-5" />
    <path
       id="path4257"
       transform="translate(0,996.3622)"
       d="M 245 5.9316406 C 244.22401 5.9316406 243.17495 6.1883906 243.12695 7.9003906 L 243.83203 7.9003906 C 243.86403 7.3723906 244.00057 6.5488281 244.97656 6.5488281 C 245.61656 6.5488281 246.0957 7.0052813 246.0957 7.6132812 C 246.0957 8.0612812 245.83213 8.4444219 245.32812 8.7324219 L 244.5918 9.1484375 C 243.40781 9.8204375 243.064 10.355516 243 11.603516 L 246.77539 11.603516 L 246.77539 10.908203 L 243.79102 10.908203 C 243.86302 10.444203 244.10442 10.124234 244.81641 9.7402344 L 245.61523 9.3085938 C 246.40723 8.8765937 246.81641 8.2917031 246.81641 7.5957031 C 246.81641 6.6117031 246.072 5.9316406 245 5.9316406 z M 231.20312 8.2363281 L 235.05469 13.890625 L 230.98438 19.763672 L 233.07422 19.763672 L 236 15.341797 L 238.88281 19.763672 L 241.01562 19.763672 L 237.0332 13.802734 L 240.90625 8.2363281 L 238.83789 8.2363281 L 236.06641 12.416016 L 233.29492 8.2363281 L 231.20312 8.2363281 z "
       style="font-size:22px;font-style:normal;font-variant:normal;font-weight:normal;font-stretch:normal;line-height:125%;letter-spacing:0px;word-spacing:0px;fill:#000000;fill-opacity:1;stroke:none;font-family:FreeSans;-inkscape-font-specification:FreeSans" />
    <path
       id="path4263"
       transform="translate(0,996.3622)"
       d="M 259.20312 8.2363281 L 263.05469 13.890625 L 258.98438 19.763672 L 261.07422 19.763672 L 264 15.341797 L 266.88281 19.763672 L 269.01562 19.763672 L 265.0332 13.802734 L 268.90625 8.2363281 L 266.83789 8.2363281 L 264.06641 12.416016 L 261.29492 8.2363281 L 259.20312 8.2363281 z M 273 16.462891 C 272.224 16.462891 271.17691 16.717688 271.12891 18.429688 L 271.83203 18.429688 C 271.86403 17.901687 272.00056 17.078125 272.97656 17.078125 C 273.61656 17.078125 274.0957 17.534578 274.0957 18.142578 C 274.0957 18.590578 273.83212 18.973719 273.32812 19.261719 L 272.5918 19.677734 C 271.4078 20.349734 271.064 20.886766 271 22.134766 L 274.77539 22.134766 L 274.77539 21.439453 L 271.79297 21.439453 C 271.86497 20.975453 272.10441 20.655484 272.81641 20.271484 L 273.61523 19.837891 C 274.40723 19.405891 274.81641 18.822953 274.81641 18.126953 C 274.81641 17.142953 274.072 16.462891 273 16.462891 z "
       style="font-size:22px;font-style:normal;font-variant:normal;font-weight:normal;font-stretch:normal;line-height:125%;letter-spacing:0px;word-spacing:0px;fill:#000000;fill-opacity:1;stroke:none;font-family:FreeSans;-inkscape-font-specification:FreeSans" />
    <path
       id="rect3022"
       transform="translate(0,996.3622)"
       d="M 283 7 L 283 9 L 301 9 L 301 7 L 283 7 z M 283 10 L 283 12 L 295 12 L 295 10 L 283 10 z M 283 13 L 283 15 L 299 15 L 299 13 L 283 13 z M 283 16 L 283 18 L 295 18 L 295 16 L 283 16 z M 283 19 L 283 21 L 301 21 L 301 19 L 283 19 z "
       style="fill:#000000;fill-opacity:1;stroke:none" />
    <path
       id="rect3022-8"
       transform="translate(0,996.3622)"
       d="M 311 7 L 311 9 L 329 9 L 329 7 L 311 7 z M 314 10 L 314 12 L 326 12 L 326 10 L 314 10 z M 312 13 L 312 15 L 328 15 L 328 13 L 312 13 z M 314 16 L 314 18 L 326 18 L 326 16 L 314 16 z M 311 19 L 311 21 L 329 21 L 329 19 L 311 19 z "
       style="fill:#000000;fill-opacity:1;stroke:none" />
    <path
       id="rect3022-8-5"
       transform="translate(0,996.3622)"
       d="M 339 7 L 339 9 L 357 9 L 357 7 L 339 7 z M 345 10 L 345 12 L 357 12 L 357 10 L 345 10 z M 341 13 L 341 15 L 357 15 L 357 13 L 341 13 z M 345 16 L 345 18 L 357 18 L 357 16 L 345 16 z M 339 19 L 339 21 L 357 21 L 357 19 L 339 19 z "
       style="fill:#000000;fill-opacity:1;stroke:none" />
    <path
       id="rect3022-8-5-5"
       transform="translate(0,996.3622)"
       d="M 367 7 L 367 9 L 385 9 L 385 7 L 367 7 z M 367 10 L 367 12 L 385 12 L 385 10 L 367 10 z M 367 13 L 367 15 L 385 15 L 385 13 L 367 13 z M 367 16 L 367 18 L 385 18 L 385 16 L 367 16 z M 367 19 L 367 21 L 385 21 L 385 19 L 367 19 z "
       style="fill:#000000;fill-opacity:1;stroke:none" />
    <path
       id="rect3022-8-5-5-0"
       transform="translate(0,996.3622)"
       d="M 395 7 L 395 9 L 413 9 L 413 7 L 395 7 z M 401 10 L 401 12 L 413 12 L 413 10 L 401 10 z M 395 10.5 L 395 17.5 L 399 14.003906 L 395 10.5 z M 401 13 L 401 15 L 413 15 L 413 13 L 401 13 z M 401 16 L 401 18 L 413 18 L 413 16 L 401 16 z M 395 19 L 395 21 L 413 21 L 413 19 L 395 19 z "
       style="fill:#000000;fill-opacity:1;stroke:none" />
    <path
       id="rect3022-8-5-5-0-4"
       transform="translate(0,996.3622)"
       d="M 423 7 L 423 9 L 441 9 L 441 7 L 423 7 z M 429 10 L 429 12 L 441 12 L 441 10 L 429 10 z M 427 10.5 L 423 14.003906 L 427 17.5 L 427 10.5 z M 429 13 L 429 15 L 441 15 L 441 13 L 429 13 z M 429 16 L 429 18 L 441 18 L 441 16 L 429 16 z M 423 19 L 423 21 L 441 21 L 441 19 L 423 19 z "
       style="fill:#000000;fill-opacity:1;stroke:none" />
    <path
       id="rect3022-5-0-7-3-8-4-5-7-0"
       transform="translate(0,996.3622)"
       d="M 480.5 6.5 C 479.67158 6.5 479 7.1716 479 8 C 479 8.8284 479.67158 9.5 480.5 9.5 C 481.32843 9.5 482 8.8284 482 8 C 482 7.1716 481.32843 6.5 480.5 6.5 z M 483 6.5 L 483 9.5 L 497 9.5 L 497 6.5 L 483 6.5 z M 480.5 12.5 C 479.67158 12.5 479 13.1716 479 14 C 479 14.8284 479.67158 15.5 480.5 15.5 C 481.32843 15.5 482 14.8284 482 14 C 482 13.1716 481.32843 12.5 480.5 12.5 z M 483 12.5 L 483 15.5 L 497 15.5 L 497 12.5 L 483 12.5 z M 480.5 18.5 C 479.67158 18.5 479 19.1716 479 20 C 479 20.8284 479.67158 21.5 480.5 21.5 C 481.32843 21.5 482 20.8284 482 20 C 482 19.1716 481.32843 18.5 480.5 18.5 z M 483 18.5 L 483 21.5 L 497 21.5 L 497 18.5 L 483 18.5 z "
       style="fill:#000000;fill-opacity:1;stroke:none" />
    <path
       id="rect3022-5-31"
       d="m 507,1009.3622 18,0 0,2 -18,0 z"
       style="fill:#000000;fill-opacity:1;stroke:none" />
    <path
       id="rect4370"
       d="m 534,1002.8622 20,0 0,15 -20,0 z"
       style="fill:#e0e0e0;fill-opacity:1;stroke:#000000;stroke-opacity:1" />
    <path
       id="path3937-7-7-3-8"
       d="m 540,1004.8622 -4.5,11 c 5.96246,0 10.92155,0 17,0 l -5.5,-6 -3.4375,3.75 z"
       style="font-size:9.27647018px;font-style:normal;font-variant:normal;font-weight:normal;font-stretch:normal;line-height:125%;letter-spacing:0px;word-spacing:0px;fill:#3c3c3c;fill-opacity:1;stroke:none;font-family:FreeSans;-inkscape-font-specification:FreeSans" />
    <path
       id="path4428"
       d="m 552.5,1006.8622 c 0,1.1046 -0.89543,2 -2,2 -1.10457,0 -2,-0.8954 -2,-2 0,-1.1046 0.89543,-2 2,-2 1.10457,0 2,0.8954 2,2 z"
       style="fill:#3c3c3c;fill-opacity:1;stroke:none" />
    <path
       style="font-size:9.27647018px;font-style:normal;font-variant:normal;font-weight:normal;font-stretch:normal;line-height:125%;letter-spacing:0px;word-spacing:0px;fill:#787878;fill-opacity:1;stroke:none;font-family:FreeSans;-inkscape-font-specification:FreeSans"
       d="m 561,1008.3623 3.49574,4 3.50426,-4 -7,0"
       id="path3937-7-5-4" />
    <path
       style="font-size:9.27647018px;font-style:normal;font-variant:normal;font-weight:normal;font-stretch:normal;line-height:125%;letter-spacing:0px;word-spacing:0px;fill:#787878;fill-opacity:1;stroke:none;font-family:FreeSans;-inkscape-font-specification:FreeSans"
       d="m 602.00002,1008.3622 3.49574,4 3.50426,-4 -7,0"
       id="path3937-7-5-4-7" />
    <path
       id="path4320"
       transform="translate(0,996.3622)"
       d="M 711.26367 8.7578125 L 707.94727 19.242188 L 708.7168 19.242188 L 712.03516 8.7578125 L 711.26367 8.7578125 z M 707.35938 12.326172 L 700.51172 15.224609 L 700.51172 16.191406 L 707.35938 19.089844 L 707.35938 17.982422 L 701.8418 15.6875 L 707.35938 13.433594 L 707.35938 12.326172 z M 712.64062 12.326172 L 712.64062 13.433594 L 718.1582 15.728516 L 712.64062 17.982422 L 712.64062 19.089844 L 719.48633 16.191406 L 719.48633 15.224609 L 712.64062 12.326172 z "
       style="font-size:14px;font-style:normal;font-variant:normal;font-weight:normal;font-stretch:normal;line-height:125%;letter-spacing:0px;word-spacing:0px;fill:#000000;fill-opacity:1;stroke:none;font-family:FreeSans;-inkscape-font-specification:FreeSans" />
    <path
       d="m 686.25391,1005.4637 4.89843,4.6407 -4.89843,4.5547 0,-2.1485 -10.74219,0 c -0.91667,0 -1.375,0.5729 -1.375,1.7188 l 0,1.0312 -1.28906,0 0,-5.2422 c -10e-6,-1.6041 0.80208,-2.4062 2.40625,-2.4062 l 11,0 0,-2.1485"
       style="font-size:22px;font-style:normal;font-variant:normal;font-weight:normal;font-stretch:normal;line-height:125%;letter-spacing:0px;word-spacing:0px;fill:#000000;fill-opacity:1;stroke:none;font-family:FreeSans;-inkscape-font-specification:FreeSans"
       id="path4327" />
    <path
       d="m 649.74613,1005.4637 -4.89844,4.6407 4.89844,4.5546 0,-2.1484 10.74218,0 c 0.91667,0 1.37501,0.5729 1.375,1.7188 l 0,1.0312 1.28907,0 0,-5.2422 c 0,-1.6041 -0.80208,-2.4062 -2.40625,-2.4062 l -11,0 0,-2.1485"
       id="path3900"
       style="font-size:22px;font-style:normal;font-variant:normal;font-weight:normal;font-stretch:normal;line-height:125%;letter-spacing:0px;word-spacing:0px;fill:#000000;fill-opacity:1;stroke:none;font-family:FreeSans;-inkscape-font-specification:FreeSans" />
    <path
       id="path-strikethrough"
       transform="translate(0,996.3622)"
       d="M 97.875 5.59375 C 94.355003 5.59375 92.1875 7.4085 92.1875 10.3125 C 92.1875 11.2006 92.414182 11.9065 92.84375 12.5 L 97.21875 12.5 L 96.875 12.40625 C 94.939002 11.87825 94.21875 11.26325 94.21875 10.03125 C 94.21875 8.40325 95.656502 7.3125 97.8125 7.3125 C 100.3645 7.3125 101.7905 8.4725 101.8125 10.5625 L 103.75 10.5625 C 103.728 7.4165 101.571 5.59375 97.875 5.59375 z M 91 13.5 L 91 14.5 L 97.078125 14.5 L 99.3125 15.09375 C 101.3365 15.62175 102.25 16.4335 102.25 17.6875 C 102.25 18.8315 101.63225 20.59375 98.15625 20.59375 C 94.526253 20.59375 93.625 18.53425 93.625 16.90625 L 93.625 16.78125 L 91.6875 16.78125 C 91.7535 21.33525 95.259253 22.40625 98.03125 22.40625 C 103.04724 22.40625 104.3125 19.458 104.3125 17.5 C 104.3125 16.270169 103.83249 15.244092 102.94922 14.5 L 105 14.5 L 105 13.5 L 101 13.5 L 93.9375 13.5 L 91 13.5 z "
       style="font-size:22px;font-style:normal;font-variant:normal;font-weight:normal;font-stretch:normal;line-height:125%;letter-spacing:0px;word-spacing:0px;fill:#000000;fill-opacity:1;stroke:none;font-family:FreeSans;-inkscape-font-specification:FreeSans" />
    <path
       id="rect4023"
       d="m 592.62349,1001.7222 c -0.70363,-0.7036 -1.81543,-0.7036 -2.51907,0 l -4.552,4.552 c -0.70364,0.7037 -0.70363,1.8155 0,2.5191 l 1.01647,1.0165 c 0.70363,0.7036 1.81542,0.7036 2.51907,0 l 4.552,-4.552 c 0.70364,-0.7037 0.70363,-1.8155 0,-2.5191 l -1.01647,-1.0165 z m -9.19239,9.1924 c -0.70363,-0.7036 -1.81542,-0.7036 -2.51907,0 l -4.552,4.552 c -0.70364,0.7037 -0.70363,1.8154 0,2.5191 l 1.01647,1.0164 c 0.70364,0.7037 1.81543,0.7037 2.51907,0 l 4.552,-4.552 c 0.70364,-0.7036 0.70363,-1.8154 0,-2.519 l -1.01647,-1.0165 z"
       style="fill:none;stroke:#000000;stroke-width:1;stroke-opacity:1" />
    <path
       id="rect4061"
       d="m 588.97511,1006.0431 0.344,0.344 c 0.29645,0.2964 0.29646,0.7737 -3e-5,1.0702 l -7.22395,7.224 c -0.29642,0.2964 -0.77372,0.2964 -1.07017,-10e-5 l -0.344,-0.344 c -0.29645,-0.2964 -0.29646,-0.7737 -4e-5,-1.0702 l 7.22394,-7.2239 c 0.29649,-0.2965 0.7738,-0.2965 1.07025,0 z"
       style="fill:#000000;fill-opacity:1;stroke:none" />
    <path
       id="rect4023-8"
       d="m 633.6235,1001.7222 c -0.70364,-0.7036 -1.8154,-0.7037 -2.51911,10e-5 l -4.552,4.552 c -0.70364,0.7036 -0.7036,1.8154 4e-5,2.519 l 1.01646,1.0165 c 0.70364,0.7036 1.81539,0.7036 2.51904,0 l 4.552,-4.552 c 0.70371,-0.7037 0.70367,-1.8155 3e-5,-2.5191 l -1.01646,-1.0165 z m -9.19239,9.1924 c -0.70364,-0.7036 -1.81539,-0.7037 -2.51911,0 l -4.552,4.552 c -0.70364,0.7037 -0.7036,1.8154 4e-5,2.5191 l 1.01647,1.0164 c 0.70363,0.7037 1.81539,0.7037 2.51903,10e-5 l 4.552,-4.552 c 0.70371,-0.7037 0.70367,-1.8155 3e-5,-2.5191 l -1.01646,-1.0165 z"
       style="fill:none;stroke:#000000;stroke-width:1;stroke-opacity:1" />
    <path
       id="rect4061-0"
       d="m 629.96759,1006.0296 c -0.29646,-0.2964 -0.76417,-0.2965 -1.06066,0 l -3.27037,3.2704 1.41421,1.4142 3.27037,-3.2704 c 0.29649,-0.2965 0.29646,-0.7642 0,-1.0606 l -0.35355,-0.3536 z m -5.03814,3.9775 -3.24827,3.2483 c -0.29642,0.2964 -0.29645,0.7642 0,1.0606 l 0.35355,0.3536 c 0.29646,0.2964 0.76424,0.2964 1.06066,0 l 3.24828,-3.2483 -1.41422,-1.4142 z"
       style="fill:#000000;fill-opacity:1;stroke:none" />
    <path
       d="m 635.06771,1015.3139 -1.764,1.752 -1.752,-1.74 -0.588,0.588 1.752,1.752 -1.764,1.764 0.6,0.588 1.752,-1.752 1.764,1.764 0.6,-0.6 -1.764,-1.764 1.752,-1.752 -0.588,-0.6"
       style="font-size:12px;font-style:normal;font-variant:normal;font-weight:normal;font-stretch:normal;line-height:125%;letter-spacing:0px;word-spacing:0px;fill:#000000;fill-opacity:1;stroke:none;font-family:FreeSans;-inkscape-font-specification:FreeSans"
       id="path4333" />
    <path
       d="m 20.424001,1041.7612 c 0,-1.584 -0.858002,-2.838 -2.662,-3.894 1.583998,-1.012 2.2,-1.936 2.2,-3.3 0,-1.474 -1.012004,-4.224 -5.236,-4.224 l -7.1500001,0 0,16.038 7.2160001,0 c 4.509995,0 5.632,-2.706 5.632,-4.62 m -9.548,-8.668 3.586,0 c 1.517998,0 2.332,0.638 2.332,1.826 0,1.166 -0.814002,1.804 -2.332,1.804 l -3.586,0 0,-3.63 m 0,6.38 3.938,0 c 1.605998,0 2.442,0.726 2.442,2.09 0,1.342 -0.836002,2.068 -2.442,2.068 l -3.938,0 0,-4.158"
       style="font-size:22px;font-style:normal;font-variant:normal;font-weight:bold;font-stretch:normal;line-height:125%;letter-spacing:0px;word-spacing:0px;fill:#000000;fill-opacity:1;stroke:none;font-family:FreeSans;-inkscape-font-specification:FreeSans Bold;opacity:0.5"
       id="path-bold-disabled" />
    <path
       d="m 44.739002,1030.3432 -2.068,0 -3.41,16.038 2.068,0 3.41,-16.038"
       style="font-size:22px;font-style:italic;font-variant:normal;font-weight:normal;font-stretch:normal;line-height:125%;letter-spacing:0px;word-spacing:0px;fill:#000000;fill-opacity:1;stroke:none;font-family:FreeSans;-inkscape-font-specification:FreeSans Italic;opacity:0.5"
       id="path-italic-disabled" />
    <path
       id="path-underline-disabled"
       transform="translate(0,996.3622)"
       d="M 63.839844 33.728516 L 63.839844 44.992188 C 63.839844 48.248188 66.17252 50.271484 69.978516 50.271484 C 73.740512 50.271484 76.160156 48.204187 76.160156 44.992188 L 76.160156 33.728516 L 74.113281 33.728516 L 74.113281 44.992188 C 74.113281 47.148187 72.552514 48.46875 69.978516 48.46875 C 67.624519 48.46875 65.886719 47.412188 65.886719 44.992188 L 65.886719 33.728516 L 63.839844 33.728516 z M 63 52 L 63 53 L 77 53 L 77 52 L 63 52 z "
       style="font-size:22px;font-style:normal;font-variant:normal;font-weight:normal;font-stretch:normal;line-height:125%;letter-spacing:0px;word-spacing:0px;fill:#000000;fill-opacity:1;stroke:none;font-family:FreeSans;-inkscape-font-specification:FreeSans;opacity:0.5" />
    <path
       id="path-removeformat-disabled"
       transform="translate(0,996.3622)"
       d="M 119.87305 33.980469 L 119.2793 36.730469 L 124.16211 36.730469 L 121.32422 50.019531 L 124.625 50.019531 L 127.46289 36.730469 L 132.12695 36.730469 L 132.7207 33.980469 L 119.87305 33.980469 z M 135.14062 49.783203 L 133.37695 51.535156 L 131.62305 49.796875 L 131.03516 50.384766 L 132.78711 52.136719 L 131.02344 53.900391 L 131.62305 54.488281 L 133.37695 52.736328 L 135.14062 54.5 L 135.74023 53.900391 L 133.97656 52.136719 L 135.72852 50.384766 L 135.14062 49.783203 z M 116 52 L 116 53 L 130 53 L 130 52 L 116 52 z "
       style="font-size:22px;font-style:italic;font-variant:normal;font-weight:bold;font-stretch:normal;line-height:125%;letter-spacing:0px;word-spacing:0px;fill:#000000;fill-opacity:1;stroke:none;font-family:FreeSans;-inkscape-font-specification:FreeSans Bold Italic;opacity:0.5" />
    <path
       d="m 157.058,1041.5632 1.65,4.818 2.288,0 -5.632,-16.038 -2.64,0 -5.72,16.038 2.178,0 1.694,-4.818 6.182,0 m -0.572,-1.716 -5.104,0 2.64,-7.304 2.464,7.304"
       style="font-size:22px;font-style:normal;font-variant:normal;font-weight:normal;font-stretch:normal;line-height:125%;letter-spacing:0px;word-spacing:0px;fill:#000000;fill-opacity:1;stroke:none;font-family:FreeSans;-inkscape-font-specification:FreeSans;opacity:0.5"
       id="path-forecolor-disabled" />
    <path
       style="font-size:9.27647018000000045px;font-style:normal;font-variant:normal;font-weight:normal;font-stretch:normal;line-height:125%;letter-spacing:0px;word-spacing:0px;fill:#787878;fill-opacity:1;stroke:none;font-family:FreeSans;-inkscape-font-specification:FreeSans;opacity:1"
       d="m 171,1036.3622 3.49574,4 3.50426,-4 -7,0"
       id="path-forecolor-disabled-pulldown" />
    <path
       id="rect3108-2"
       d="m 185.5,1028.8622 19,0 0,19 -19,0 z"
       style="fill:#e0e0e0;fill-opacity:1;stroke:#000000;stroke-opacity:1;opacity:0.5" />
    <path
       d="m 198.058,1041.5632 1.65,4.818 2.288,0 -5.632,-16.038 -2.64,0 -5.72,16.038 2.178,0 1.694,-4.818 6.182,0 m -0.572,-1.716 -5.104,0 2.64,-7.304 2.464,7.304"
       style="font-size:22px;font-style:normal;font-variant:normal;font-weight:normal;font-stretch:normal;line-height:125%;letter-spacing:0px;word-spacing:0px;fill:#000000;fill-opacity:1;stroke:none;font-family:FreeSans;-inkscape-font-specification:FreeSans;opacity:0.5"
       id="path4254-1" />
    <path
       style="font-size:9.27647018000000045px;font-style:normal;font-variant:normal;font-weight:normal;font-stretch:normal;line-height:125%;letter-spacing:0px;word-spacing:0px;fill:#787878;fill-opacity:1;stroke:none;font-family:FreeSans;-inkscape-font-specification:FreeSans;opacity:1"
       d="m 212,1036.3622 3.49574,4 3.50426,-4 -7,0"
       id="path3937-7-5-6" />
    <path
       id="path4257-2"
       transform="translate(0,996.3622)"
       d="M 245 33.931641 C 244.22401 33.931641 243.17495 34.188391 243.12695 35.900391 L 243.83203 35.900391 C 243.86403 35.372391 244.00057 34.548828 244.97656 34.548828 C 245.61656 34.548828 246.0957 35.005281 246.0957 35.613281 C 246.0957 36.061281 245.83213 36.444422 245.32812 36.732422 L 244.5918 37.148438 C 243.40781 37.820438 243.064 38.355516 243 39.603516 L 246.77539 39.603516 L 246.77539 38.908203 L 243.79102 38.908203 C 243.86302 38.444203 244.10442 38.124234 244.81641 37.740234 L 245.61523 37.308594 C 246.40723 36.876594 246.81641 36.291703 246.81641 35.595703 C 246.81641 34.611703 246.072 33.931641 245 33.931641 z M 231.20312 36.236328 L 235.05469 41.890625 L 230.98438 47.763672 L 233.07422 47.763672 L 236 43.341797 L 238.88281 47.763672 L 241.01562 47.763672 L 237.0332 41.802734 L 240.90625 36.236328 L 238.83789 36.236328 L 236.06641 40.416016 L 233.29492 36.236328 L 231.20312 36.236328 z "
       style="font-size:22px;font-style:normal;font-variant:normal;font-weight:normal;font-stretch:normal;line-height:125%;letter-spacing:0px;word-spacing:0px;fill:#000000;fill-opacity:1;stroke:none;font-family:FreeSans;-inkscape-font-specification:FreeSans;opacity:0.5" />
    <path
       id="path4263-5"
       transform="translate(0,996.3622)"
       d="M 259.20312 36.236328 L 263.05469 41.890625 L 258.98438 47.763672 L 261.07422 47.763672 L 264 43.341797 L 266.88281 47.763672 L 269.01562 47.763672 L 265.0332 41.802734 L 268.90625 36.236328 L 266.83789 36.236328 L 264.06641 40.416016 L 261.29492 36.236328 L 259.20312 36.236328 z M 273 44.462891 C 272.224 44.462891 271.17691 44.717688 271.12891 46.429688 L 271.83203 46.429688 C 271.86403 45.901687 272.00056 45.078125 272.97656 45.078125 C 273.61656 45.078125 274.0957 45.534578 274.0957 46.142578 C 274.0957 46.590578 273.83212 46.973719 273.32812 47.261719 L 272.5918 47.677734 C 271.4078 48.349734 271.064 48.886766 271 50.134766 L 274.77539 50.134766 L 274.77539 49.439453 L 271.79297 49.439453 C 271.86497 48.975453 272.10441 48.655484 272.81641 48.271484 L 273.61523 47.837891 C 274.40723 47.405891 274.81641 46.822953 274.81641 46.126953 C 274.81641 45.142953 274.072 44.462891 273 44.462891 z "
       style="font-size:22px;font-style:normal;font-variant:normal;font-weight:normal;font-stretch:normal;line-height:125%;letter-spacing:0px;word-spacing:0px;fill:#000000;fill-opacity:1;stroke:none;font-family:FreeSans;-inkscape-font-specification:FreeSans;opacity:0.5" />
    <path
       id="rect3022-3"
       transform="translate(0,996.3622)"
       d="M 283 35 L 283 37 L 301 37 L 301 35 L 283 35 z M 283 38 L 283 40 L 295 40 L 295 38 L 283 38 z M 283 41 L 283 43 L 299 43 L 299 41 L 283 41 z M 283 44 L 283 46 L 295 46 L 295 44 L 283 44 z M 283 47 L 283 49 L 301 49 L 301 47 L 283 47 z "
       style="fill:#000000;fill-opacity:1;stroke:none;opacity:0.5" />
    <path
       id="rect3022-8-7"
       transform="translate(0,996.3622)"
       d="M 311 35 L 311 37 L 329 37 L 329 35 L 311 35 z M 314 38 L 314 40 L 326 40 L 326 38 L 314 38 z M 312 41 L 312 43 L 328 43 L 328 41 L 312 41 z M 314 44 L 314 46 L 326 46 L 326 44 L 314 44 z M 311 47 L 311 49 L 329 49 L 329 47 L 311 47 z "
       style="fill:#000000;fill-opacity:1;stroke:none;opacity:0.5" />
    <path
       id="rect3022-8-5-1"
       transform="translate(0,996.3622)"
       d="M 339 35 L 339 37 L 357 37 L 357 35 L 339 35 z M 345 38 L 345 40 L 357 40 L 357 38 L 345 38 z M 341 41 L 341 43 L 357 43 L 357 41 L 341 41 z M 345 44 L 345 46 L 357 46 L 357 44 L 345 44 z M 339 47 L 339 49 L 357 49 L 357 47 L 339 47 z "
       style="fill:#000000;fill-opacity:1;stroke:none;opacity:0.5" />
    <path
       id="rect3022-8-5-5-1"
       transform="translate(0,996.3622)"
       d="M 367 35 L 367 37 L 385 37 L 385 35 L 367 35 z M 367 38 L 367 40 L 385 40 L 385 38 L 367 38 z M 367 41 L 367 43 L 385 43 L 385 41 L 367 41 z M 367 44 L 367 46 L 385 46 L 385 44 L 367 44 z M 367 47 L 367 49 L 385 49 L 385 47 L 367 47 z "
       style="fill:#000000;fill-opacity:1;stroke:none;opacity:0.5" />
    <path
       id="rect3022-8-5-5-0-47"
       transform="translate(0,996.3622)"
       d="M 395 35 L 395 37 L 413 37 L 413 35 L 395 35 z M 401 38 L 401 40 L 413 40 L 413 38 L 401 38 z M 395 38.5 L 395 45.5 L 399 42.003906 L 395 38.5 z M 401 41 L 401 43 L 413 43 L 413 41 L 401 41 z M 401 44 L 401 46 L 413 46 L 413 44 L 401 44 z M 395 47 L 395 49 L 413 49 L 413 47 L 395 47 z "
       style="fill:#000000;fill-opacity:1;stroke:none;opacity:0.5" />
    <path
       id="rect3022-8-5-5-0-4-6"
       transform="translate(0,996.3622)"
       d="M 423 35 L 423 37 L 441 37 L 441 35 L 423 35 z M 429 38 L 429 40 L 441 40 L 441 38 L 429 38 z M 427 38.5 L 423 42.003906 L 427 45.5 L 427 38.5 z M 429 41 L 429 43 L 441 43 L 441 41 L 429 41 z M 429 44 L 429 46 L 441 46 L 441 44 L 429 44 z M 423 47 L 423 49 L 441 49 L 441 47 L 423 47 z "
       style="fill:#000000;fill-opacity:1;stroke:none;opacity:0.5" />
    <path
       id="rect3022-5-0-7-3-8-4-5-7-0-4"
       transform="translate(0,996.3622)"
       d="M 480.5 34.5 C 479.67158 34.5 479 35.1716 479 36 C 479 36.8284 479.67158 37.5 480.5 37.5 C 481.32843 37.5 482 36.8284 482 36 C 482 35.1716 481.32843 34.5 480.5 34.5 z M 483 34.5 L 483 37.5 L 497 37.5 L 497 34.5 L 483 34.5 z M 480.5 40.5 C 479.67158 40.5 479 41.1716 479 42 C 479 42.8284 479.67158 43.5 480.5 43.5 C 481.32843 43.5 482 42.8284 482 42 C 482 41.1716 481.32843 40.5 480.5 40.5 z M 483 40.5 L 483 43.5 L 497 43.5 L 497 40.5 L 483 40.5 z M 480.5 46.5 C 479.67158 46.5 479 47.1716 479 48 C 479 48.8284 479.67158 49.5 480.5 49.5 C 481.32843 49.5 482 48.8284 482 48 C 482 47.1716 481.32843 46.5 480.5 46.5 z M 483 46.5 L 483 49.5 L 497 49.5 L 497 46.5 L 483 46.5 z "
       style="fill:#000000;fill-opacity:1;stroke:none;opacity:0.5" />
    <path
       id="rect3022-5-31-7"
       d="m 507,1037.3622 18,0 0,2 -18,0 z"
       style="fill:#000000;fill-opacity:1;stroke:none;opacity:0.5" />
    <path
       id="rect4370-0"
       d="m 534,1030.8622 20,0 0,15 -20,0 z"
       style="fill:#e0e0e0;fill-opacity:1;stroke:#000000;stroke-opacity:1;opacity:0.5" />
    <path
       id="path3937-7-7-3-8-4"
       d="m 540,1032.8622 -4.5,11 c 5.96246,0 10.92155,0 17,0 l -5.5,-6 -3.4375,3.75 z"
       style="font-size:9.27647018000000045px;font-style:normal;font-variant:normal;font-weight:normal;font-stretch:normal;line-height:125%;letter-spacing:0px;word-spacing:0px;fill:#3c3c3c;fill-opacity:1;stroke:none;font-family:FreeSans;-inkscape-font-specification:FreeSans;opacity:0.5" />
    <path
       id="path4428-1"
       d="m 552.5,1034.8622 c 0,1.1046 -0.89543,2 -2,2 -1.10457,0 -2,-0.8954 -2,-2 0,-1.1046 0.89543,-2 2,-2 1.10457,0 2,0.8954 2,2 z"
       style="fill:#3c3c3c;fill-opacity:1;stroke:none;opacity:0.5" />
    <path
       style="font-size:9.27647018000000045px;font-style:normal;font-variant:normal;font-weight:normal;font-stretch:normal;line-height:125%;letter-spacing:0px;word-spacing:0px;fill:#787878;fill-opacity:1;stroke:none;font-family:FreeSans;-inkscape-font-specification:FreeSans;opacity:1"
       d="m 561,1036.3623 3.49574,4 3.50426,-4 -7,0"
       id="path3937-7-5-4-4" />
    <path
       style="font-size:9.27647018000000045px;font-style:normal;font-variant:normal;font-weight:normal;font-stretch:normal;line-height:125%;letter-spacing:0px;word-spacing:0px;fill:#787878;fill-opacity:1;stroke:none;font-family:FreeSans;-inkscape-font-specification:FreeSans;opacity:1"
       d="m 602.00002,1036.3622 3.49574,4 3.50426,-4 -7,0"
       id="path3937-7-5-4-7-1" />
    <path
       id="path4320-9"
       transform="translate(0,996.3622)"
       d="M 711.26367 36.757812 L 707.94727 47.242188 L 708.7168 47.242188 L 712.03516 36.757812 L 711.26367 36.757812 z M 707.35938 40.326172 L 700.51172 43.224609 L 700.51172 44.191406 L 707.35938 47.089844 L 707.35938 45.982422 L 701.8418 43.6875 L 707.35938 41.433594 L 707.35938 40.326172 z M 712.64062 40.326172 L 712.64062 41.433594 L 718.1582 43.728516 L 712.64062 45.982422 L 712.64062 47.089844 L 719.48633 44.191406 L 719.48633 43.224609 L 712.64062 40.326172 z "
       style="font-size:14px;font-style:normal;font-variant:normal;font-weight:normal;font-stretch:normal;line-height:125%;letter-spacing:0px;word-spacing:0px;fill:#000000;fill-opacity:1;stroke:none;font-family:FreeSans;-inkscape-font-specification:FreeSans;opacity:0.5" />
    <path
       d="m 686.25391,1033.4637 4.89843,4.6407 -4.89843,4.5547 0,-2.1485 -10.74219,0 c -0.91667,0 -1.375,0.5729 -1.375,1.7188 l 0,1.0312 -1.28906,0 0,-5.2422 c -10e-6,-1.6041 0.80208,-2.4062 2.40625,-2.4062 l 11,0 0,-2.1485"
       style="font-size:22px;font-style:normal;font-variant:normal;font-weight:normal;font-stretch:normal;line-height:125%;letter-spacing:0px;word-spacing:0px;fill:#000000;fill-opacity:1;stroke:none;font-family:FreeSans;-inkscape-font-specification:FreeSans;opacity:0.5"
       id="path4327-9" />
    <path
       d="m 649.74613,1033.4637 -4.89844,4.6407 4.89844,4.5546 0,-2.1484 10.74218,0 c 0.91667,0 1.37501,0.5729 1.375,1.7188 l 0,1.0312 1.28907,0 0,-5.2422 c 0,-1.6041 -0.80208,-2.4062 -2.40625,-2.4062 l -11,0 0,-2.1485"
       id="path3900-5"
       style="font-size:22px;font-style:normal;font-variant:normal;font-weight:normal;font-stretch:normal;line-height:125%;letter-spacing:0px;word-spacing:0px;fill:#000000;fill-opacity:1;stroke:none;font-family:FreeSans;-inkscape-font-specification:FreeSans;opacity:0.5" />
    <path
       id="path-strikethrough-disabled"
       transform="translate(0,996.3622)"
       d="M 97.875 33.59375 C 94.355003 33.59375 92.1875 35.4085 92.1875 38.3125 C 92.1875 39.2006 92.414182 39.9065 92.84375 40.5 L 97.21875 40.5 L 96.875 40.40625 C 94.939002 39.87825 94.21875 39.26325 94.21875 38.03125 C 94.21875 36.40325 95.656502 35.3125 97.8125 35.3125 C 100.3645 35.3125 101.7905 36.4725 101.8125 38.5625 L 103.75 38.5625 C 103.728 35.4165 101.571 33.59375 97.875 33.59375 z M 91 41.5 L 91 42.5 L 97.078125 42.5 L 99.3125 43.09375 C 101.3365 43.62175 102.25 44.4335 102.25 45.6875 C 102.25 46.8315 101.63225 48.59375 98.15625 48.59375 C 94.526253 48.59375 93.625 46.53425 93.625 44.90625 L 93.625 44.78125 L 91.6875 44.78125 C 91.7535 49.33525 95.259253 50.40625 98.03125 50.40625 C 103.04724 50.40625 104.3125 47.458 104.3125 45.5 C 104.3125 44.270169 103.83249 43.244096 102.94922 42.5 L 105 42.5 L 105 41.5 L 101 41.5 L 93.9375 41.5 L 91 41.5 z "
       style="font-size:22px;font-style:normal;font-variant:normal;font-weight:normal;font-stretch:normal;line-height:125%;letter-spacing:0px;word-spacing:0px;fill:#000000;fill-opacity:1;stroke:none;font-family:FreeSans;-inkscape-font-specification:FreeSans;opacity:0.5" />
    <path
       id="rect4023-1"
       d="m 592.62349,1029.7222 c -0.70363,-0.7036 -1.81543,-0.7036 -2.51907,0 l -4.552,4.552 c -0.70364,0.7037 -0.70363,1.8155 0,2.5191 l 1.01647,1.0165 c 0.70363,0.7036 1.81542,0.7036 2.51907,0 l 4.552,-4.552 c 0.70364,-0.7037 0.70363,-1.8155 0,-2.5191 l -1.01647,-1.0165 z m -9.19239,9.1924 c -0.70363,-0.7036 -1.81542,-0.7036 -2.51907,0 l -4.552,4.552 c -0.70364,0.7037 -0.70363,1.8154 0,2.5191 l 1.01647,1.0164 c 0.70364,0.7037 1.81543,0.7037 2.51907,0 l 4.552,-4.552 c 0.70364,-0.7036 0.70363,-1.8154 0,-2.519 l -1.01647,-1.0165 z"
       style="fill:none;stroke:#000000;stroke-width:1;stroke-opacity:1;opacity:0.5" />
    <path
       id="rect4061-1"
       d="m 588.97511,1034.0431 0.344,0.344 c 0.29645,0.2964 0.29646,0.7737 -3e-5,1.0702 l -7.22395,7.224 c -0.29642,0.2964 -0.77372,0.2964 -1.07017,-10e-5 l -0.344,-0.344 c -0.29645,-0.2964 -0.29646,-0.7737 -4e-5,-1.0702 l 7.22394,-7.2239 c 0.29649,-0.2965 0.7738,-0.2965 1.07025,0 z"
       style="fill:#000000;fill-opacity:1;stroke:none;opacity:0.5" />
    <path
       id="rect4023-8-6"
       d="m 633.6235,1029.7222 c -0.70364,-0.7036 -1.8154,-0.7037 -2.51911,10e-5 l -4.552,4.552 c -0.70364,0.7036 -0.7036,1.8154 4e-5,2.519 l 1.01646,1.0165 c 0.70364,0.7036 1.81539,0.7036 2.51904,0 l 4.552,-4.552 c 0.70371,-0.7037 0.70367,-1.8155 3e-5,-2.5191 l -1.01646,-1.0165 z m -9.19239,9.1924 c -0.70364,-0.7036 -1.81539,-0.7037 -2.51911,0 l -4.552,4.552 c -0.70364,0.7037 -0.7036,1.8154 4e-5,2.5191 l 1.01647,1.0164 c 0.70363,0.7037 1.81539,0.7037 2.51903,10e-5 l 4.552,-4.552 c 0.70371,-0.7037 0.70367,-1.8155 3e-5,-2.5191 l -1.01646,-1.0165 z"
       style="fill:none;stroke:#000000;stroke-width:1;stroke-opacity:1;opacity:0.5" />
    <path
       id="rect4061-0-4"
       d="m 629.96759,1034.0296 c -0.29646,-0.2964 -0.76417,-0.2965 -1.06066,0 l -3.27037,3.2704 1.41421,1.4142 3.27037,-3.2704 c 0.29649,-0.2965 0.29646,-0.7642 0,-1.0606 l -0.35355,-0.3536 z m -5.03814,3.9775 -3.24827,3.2483 c -0.29642,0.2964 -0.29645,0.7642 0,1.0606 l 0.35355,0.3536 c 0.29646,0.2964 0.76424,0.2964 1.06066,0 l 3.24828,-3.2483 -1.41422,-1.4142 z"
       style="fill:#000000;fill-opacity:1;stroke:none;opacity:0.5" />
    <path
       d="m 635.06771,1043.3139 -1.764,1.752 -1.752,-1.74 -0.588,0.588 1.752,1.752 -1.764,1.764 0.6,0.588 1.752,-1.752 1.764,1.764 0.6,-0.6 -1.764,-1.764 1.752,-1.752 -0.588,-0.6"
       style="font-size:12px;font-style:normal;font-variant:normal;font-weight:normal;font-stretch:normal;line-height:125%;letter-spacing:0px;word-spacing:0px;fill:#000000;fill-opacity:1;stroke:none;font-family:FreeSans;-inkscape-font-specification:FreeSans;opacity:0.5"
       id="path4333-6" />
  </g>
</svg>
