<?xml version="1.0" encoding="UTF-8" standalone="no"?>
<svg
   xmlns:dc="http://purl.org/dc/elements/1.1/"
   xmlns:cc="http://creativecommons.org/ns#"
   xmlns:rdf="http://www.w3.org/1999/02/22-rdf-syntax-ns#"
   xmlns:svg="http://www.w3.org/2000/svg"
   xmlns="http://www.w3.org/2000/svg"
   version="1.1"
   id="svg2"
   height="56"
   width="724">
  <defs
     id="defs4" />
  <metadata
     id="metadata7">
    <rdf:RDF>
      <cc:Work
         rdf:about="">
        <dc:format>image/svg+xml</dc:format>
        <dc:type
           rdf:resource="http://purl.org/dc/dcmitype/StillImage" />
        <dc:title></dc:title>
      </cc:Work>
    </rdf:RDF>
  </metadata>
  <path
     style="opacity:0.5;fill:#000000;fill-opacity:1;stroke:none"
     d="m 451.91406,33.7852 c -0.1375,0.525 -0.59297,0.7929 -1.35547,0.7929 l 0,0.5821 1.0625,0 0,3.0547 0.875,0 0,-4.4297 -0.58203,0 z M 455,34.5 l 0,3 14,0 0,-3 -14,0 z m -2.96094,5.2383 c -0.91875,0 -1.45508,0.543 -1.45508,1.4805 0,0.038 -1.4e-4,0.088 0.006,0.1562 l 0.83789,0 0,-0.1445 c 0,-0.4938 0.23086,-0.7813 0.63086,-0.7813 0.3875,0 0.625,0.2692 0.625,0.7129 0,0.4875 -0.14961,0.6875 -1.13086,1.375 -0.74375,0.5188 -0.98164,0.9059 -1.02539,1.7246 l 3.01172,0 0,-0.7812 -1.875,0 c 0.375,-0.7938 1.89453,-1.011 1.89453,-2.336 0,-0.8563 -0.58828,-1.4062 -1.51953,-1.4062 z M 455,40.5 l 0,3 14,0 0,-3 -14,0 z m -3.00391,5.166 c -0.56875,0 -1.4375,0.2121 -1.4375,1.4121 l 0,0.074 0.8125,0 c 0.0125,-0.475 0.11172,-0.7813 0.60547,-0.7813 0.35,0 0.55078,0.2132 0.55078,0.582 0,0.4437 -0.25664,0.668 -0.77539,0.668 l -0.0762,0 0,0.5879 c 0.30625,0 0.36367,0.011 0.51367,0.045 0.29375,0.081 0.48047,0.3371 0.48047,0.6621 0,0.3875 -0.275,0.668 -0.65625,0.668 -0.4125,0 -0.63711,-0.2372 -0.66211,-0.6934 l -0.84961,0 c 0.006,0.8875 0.58789,1.4434 1.49414,1.4434 0.94375,0 1.54883,-0.5555 1.54883,-1.418 0,-0.5188 -0.22461,-0.8559 -0.72461,-1.0996 0.4125,-0.2563 0.58203,-0.537 0.58203,-0.9433 0,-0.7375 -0.55,-1.2071 -1.40625,-1.2071 z M 455,46.5 l 0,3 14,0 0,-3 -14,0 z"
     id="path-insertorderedlist-disabled" />
  <path
     style="fill:#000000;fill-opacity:1;stroke:none"
     d="m 451.91405,5.7852 c -0.1375,0.525 -0.59297,0.7929 -1.35547,0.7929 l 0,0.5821 1.0625,0 0,3.0547 0.875,0 0,-4.4297 -0.58203,0 z m 3.08594,0.7148 0,3 14,0 0,-3 -14,0 z m -2.96094,5.2383 c -0.91875,0 -1.45508,0.543 -1.45508,1.4805 0,0.038 -1.4e-4,0.088 0.006,0.1562 l 0.83789,0 0,-0.1445 c 0,-0.4938 0.23086,-0.7813 0.63086,-0.7813 0.3875,0 0.625,0.2692 0.625,0.7129 0,0.4875 -0.14961,0.6875 -1.13086,1.375 -0.74375,0.5188 -0.98164,0.9059 -1.02539,1.7246 l 3.01172,0 0,-0.7812 -1.875,0 c 0.375,-0.7938 1.89453,-1.011 1.89453,-2.336 0,-0.8563 -0.58828,-1.4062 -1.51953,-1.4062 z m 2.96094,0.7617 0,3 14,0 0,-3 -14,0 z m -3.00391,5.166 c -0.56875,0 -1.4375,0.2121 -1.4375,1.4121 l 0,0.074 0.8125,0 c 0.0125,-0.475 0.11172,-0.7813 0.60547,-0.7813 0.35,0 0.55078,0.2132 0.55078,0.582 0,0.4437 -0.25664,0.668 -0.77539,0.668 l -0.0762,0 0,0.5879 c 0.30625,0 0.36367,0.011 0.51367,0.045 0.29375,0.081 0.48047,0.3371 0.48047,0.6621 0,0.3875 -0.275,0.668 -0.65625,0.668 -0.4125,0 -0.63711,-0.2372 -0.66211,-0.6934 l -0.84961,0 c 0.006,0.8875 0.58789,1.4434 1.49414,1.4434 0.94375,0 1.54883,-0.5555 1.54883,-1.418 0,-0.5188 -0.22461,-0.8559 -0.72461,-1.0996 0.4125,-0.2563 0.58203,-0.537 0.58203,-0.9433 0,-0.7375 -0.55,-1.2071 -1.40625,-1.2071 z m 3.00391,0.834 0,3 14,0 0,-3 -14,0 z"
     id="path-insertorderedlist" />
  <path
     id="path-bold"
     style="fill:#000000;fill-opacity:1;stroke:none"
     d="m 20.424,17.399 c 0,-1.584 -0.858002,-2.838 -2.662,-3.894 1.583998,-1.012 2.2,-1.936 2.2,-3.3 0,-1.474 -1.012004,-4.224 -5.236,-4.224 l -7.1500002,0 0,16.038 7.2160002,0 c 4.509995,0 5.632,-2.706 5.632,-4.62 m -9.548,-8.668 3.586,0 c 1.517998,0 2.332,0.638 2.332,1.826 0,1.166 -0.814002,1.804 -2.332,1.804 l -3.586,0 0,-3.63 m 0,6.38 3.938,0 c 1.605998,0 2.442,0.726 2.442,2.09 0,1.342 -0.836002,2.068 -2.442,2.068 l -3.938,0 0,-4.158" />
  <path
     id="path-italic"
     style="fill:#000000;fill-opacity:1;stroke:none"
     d="m 44.739001,5.981 -2.068,0 -3.41,16.038 2.068,0 3.41,-16.038" />
  <path
     style="fill:#000000;fill-opacity:1;stroke:none"
     d="m 63.839844,5.7285156 0,11.2636724 c 0,3.255999 2.332676,5.279296 6.138672,5.279296 3.761996,0 6.18164,-2.067297 6.18164,-5.279296 l 0,-11.2636724 -2.046875,0 0,11.2636724 c 0,2.155999 -1.560767,3.476562 -4.134765,3.476562 -2.353997,0 -4.091797,-1.056563 -4.091797,-3.476562 l 0,-11.2636724 -2.046875,0 z M 63,24 l 0,1 14,0 0,-1 -14,0 z"
     id="path-underline" />
  <path
     style="fill:#000000;fill-opacity:1;stroke:none"
     d="m 119.87305,5.9804688 -0.59375,2.75 4.88281,0 -2.83789,13.2890622 3.30078,0 2.83789,-13.2890622 4.66406,0 0.59375,-2.75 -12.84765,0 z m 15.26757,15.8027342 -1.76367,1.751953 -1.7539,-1.738281 -0.58789,0.587891 1.75195,1.751953 -1.76367,1.763672 0.59961,0.58789 1.7539,-1.751953 1.76367,1.763672 0.59961,-0.599609 -1.76367,-1.763672 1.75196,-1.751953 -0.5879,-0.601563 z M 116,24 l 0,1 14,0 0,-1 -14,0 z"
     id="path-removeformat" />
  <path
     id="path-forecolor"
     style="fill:#000000;fill-opacity:1;stroke:none"
     d="m 157.058,17.201 1.65,4.818 2.288,0 -5.632,-16.038 -2.64,0 -5.72,16.038 2.178,0 1.694,-4.818 6.182,0 m -0.572,-1.716 -5.104,0 2.64,-7.304 2.464,7.304" />
  <path
     id="path-forecolor-pulldown"
     d="m 171,12 3.49574,4 3.50426,-4 -7,0"
     style="opacity:1;fill:#787878;fill-opacity:1;stroke:none" />
  <path
     style="fill:#e0e0e0;fill-opacity:1;stroke:#000000;stroke-opacity:1"
     d="m 185.5,4.5 19,0 0,19 -19,0 z"
     id="rect3108" />
  <path
     id="path4254"
     style="fill:#000000;fill-opacity:1;stroke:none"
     d="m 198.058,17.201 1.65,4.818 2.288,0 -5.632,-16.038 -2.64,0 -5.72,16.038 2.178,0 1.694,-4.818 6.182,0 m -0.572,-1.716 -5.104,0 2.64,-7.304 2.464,7.304" />
  <path
     id="path-backcolor-pulldown"
     d="m 212,12 3.49574,4 3.50426,-4 -7,0"
     style="fill:#787878;fill-opacity:1;stroke:none" />
  <path
     style="fill:#000000;fill-opacity:1;stroke:none"
     d="m 245,5.9316406 c -0.77599,0 -1.82505,0.25675 -1.87305,1.96875 l 0.70508,0 c 0.032,-0.528 0.16854,-1.3515625 1.14453,-1.3515625 0.64,0 1.11914,0.4564532 1.11914,1.0644531 0,0.448 -0.26357,0.8311407 -0.76758,1.1191407 l -0.73632,0.4160156 c -1.18399,0.672 -1.5278,1.2070785 -1.5918,2.4550785 l 3.77539,0 0,-0.695313 -2.98437,0 c 0.072,-0.464 0.3134,-0.783969 1.02539,-1.1679686 l 0.79882,-0.4316406 c 0.792,-0.4320001 1.20118,-1.0168907 1.20118,-1.7128907 0,-0.984 -0.74441,-1.6640625 -1.81641,-1.6640625 z m -13.79688,2.3046875 3.85157,5.6542969 -4.07031,5.873047 2.08984,0 2.92578,-4.421875 2.88281,4.421875 2.13281,0 -3.98242,-5.960938 3.87305,-5.5664059 -2.06836,0 -2.77148,4.1796879 -2.77149,-4.1796879 -2.0918,0 z"
     id="path-superscript" />
  <path
     style="fill:#000000;fill-opacity:1;stroke:none"
     d="m 259.20312,8.2363281 3.85157,5.6542969 -4.07031,5.873047 2.08984,0 2.92578,-4.421875 2.88281,4.421875 2.13281,0 -3.98242,-5.960938 3.87305,-5.5664059 -2.06836,0 -2.77148,4.1796879 -2.77149,-4.1796879 -2.0918,0 z M 273,16.462891 c -0.776,0 -1.82309,0.254797 -1.87109,1.966797 l 0.70312,0 c 0.032,-0.528001 0.16853,-1.351563 1.14453,-1.351563 0.64,0 1.11914,0.456453 1.11914,1.064453 0,0.448 -0.26358,0.831141 -0.76758,1.119141 l -0.73632,0.416015 c -1.184,0.672 -1.5278,1.209032 -1.5918,2.457032 l 3.77539,0 0,-0.695313 -2.98242,0 c 0.072,-0.464 0.31144,-0.783969 1.02344,-1.167969 l 0.79882,-0.433593 c 0.792,-0.432 1.20118,-1.014938 1.20118,-1.710938 0,-0.984 -0.74441,-1.664062 -1.81641,-1.664062 z"
     id="path-subscript" />
  <path
     style="fill:#000000;fill-opacity:1;stroke:none"
     d="m 283,7 0,2 18,0 0,-2 -18,0 z m 0,3 0,2 12,0 0,-2 -12,0 z m 0,3 0,2 16,0 0,-2 -16,0 z m 0,3 0,2 12,0 0,-2 -12,0 z m 0,3 0,2 18,0 0,-2 -18,0 z"
     id="path-justifyleft" />
  <path
     style="fill:#000000;fill-opacity:1;stroke:none"
     d="m 311,7 0,2 18,0 0,-2 -18,0 z m 3,3 0,2 12,0 0,-2 -12,0 z m -2,3 0,2 16,0 0,-2 -16,0 z m 2,3 0,2 12,0 0,-2 -12,0 z m -3,3 0,2 18,0 0,-2 -18,0 z"
     id="path-justifycenter" />
  <path
     style="fill:#000000;fill-opacity:1;stroke:none"
     d="m 339,7 0,2 18,0 0,-2 -18,0 z m 6,3 0,2 12,0 0,-2 -12,0 z m -4,3 0,2 16,0 0,-2 -16,0 z m 4,3 0,2 12,0 0,-2 -12,0 z m -6,3 0,2 18,0 0,-2 -18,0 z"
     id="path-justifyright" />
  <path
     style="fill:#000000;fill-opacity:1;stroke:none"
     d="m 367,7 0,2 18,0 0,-2 -18,0 z m 0,3 0,2 18,0 0,-2 -18,0 z m 0,3 0,2 18,0 0,-2 -18,0 z m 0,3 0,2 18,0 0,-2 -18,0 z m 0,3 0,2 18,0 0,-2 -18,0 z"
     id="path-justifyfull" />
  <path
     style="fill:#000000;fill-opacity:1;stroke:none"
     d="m 395,7 0,2 18,0 0,-2 -18,0 z m 6,3 0,2 12,0 0,-2 -12,0 z m -6,0.5 0,7 4,-3.496094 L 395,10.5 Z m 6,2.5 0,2 12,0 0,-2 -12,0 z m 0,3 0,2 12,0 0,-2 -12,0 z m -6,3 0,2 18,0 0,-2 -18,0 z"
     id="path-indent" />
  <path
     style="fill:#000000;fill-opacity:1;stroke:none"
     d="m 423,7 0,2 18,0 0,-2 -18,0 z m 6,3 0,2 12,0 0,-2 -12,0 z m -2,0.5 -4,3.503906 4,3.496094 0,-7 z m 2,2.5 0,2 12,0 0,-2 -12,0 z m 0,3 0,2 12,0 0,-2 -12,0 z m -6,3 0,2 18,0 0,-2 -18,0 z"
     id="path-outdent" />
  <path
     style="fill:#000000;fill-opacity:1;stroke:none"
     d="m 480.5,6.5 c -0.82842,0 -1.5,0.6716 -1.5,1.5 0,0.8284 0.67158,1.5 1.5,1.5 0.82843,0 1.5,-0.6716 1.5,-1.5 0,-0.8284 -0.67157,-1.5 -1.5,-1.5 z m 2.5,0 0,3 14,0 0,-3 -14,0 z m -2.5,6 c -0.82842,0 -1.5,0.6716 -1.5,1.5 0,0.8284 0.67158,1.5 1.5,1.5 0.82843,0 1.5,-0.6716 1.5,-1.5 0,-0.8284 -0.67157,-1.5 -1.5,-1.5 z m 2.5,0 0,3 14,0 0,-3 -14,0 z m -2.5,6 c -0.82842,0 -1.5,0.6716 -1.5,1.5 0,0.8284 0.67158,1.5 1.5,1.5 0.82843,0 1.5,-0.6716 1.5,-1.5 0,-0.8284 -0.67157,-1.5 -1.5,-1.5 z m 2.5,0 0,3 14,0 0,-3 -14,0 z"
     id="path-insertunorderedlist" />
  <path
     style="fill:#000000;fill-opacity:1;stroke:none"
     d="m 507,13 18,0 0,2 -18,0 z"
     id="path-inserthorizontalrule" />
  <path
     style="fill:#e0e0e0;fill-opacity:1;stroke:#000000;stroke-opacity:1"
     d="m 534,6.5 20,0 0,15 -20,0 z"
     id="rect4370" />
  <path
     style="fill:#3c3c3c;fill-opacity:1;stroke:none"
     d="m 540,8.5 -4.5,11 c 5.96246,0 10.92155,0 17,0 l -5.5,-6 -3.4375,3.75 z"
     id="path3937-7-7-3-8" />
  <path
     style="fill:#3c3c3c;fill-opacity:1;stroke:none"
     d="m 552.5,10.5 c 0,1.1046 -0.89543,2 -2,2 -1.10457,0 -2,-0.8954 -2,-2 0,-1.1046 0.89543,-2 2,-2 1.10457,0 2,0.8954 2,2 z"
     id="path4428" />
  <path
     id="path-insertimage-pulldown"
     d="m 561,12.0001 3.49574,4 3.50426,-4 -7,0"
     style="opacity:1;fill:#787878;fill-opacity:1;stroke:none" />
  <path
     id="path-createlink-pulldown"
     d="m 602.00002,12 3.49574,4 3.50426,-4 -7,0"
     style="opacity:1;fill:#787878;fill-opacity:1;stroke:none" />
  <path
     style="fill:#000000;fill-opacity:1;stroke:none"
     d="m 711.26367,8.7578125 -3.3164,10.4843755 0.76953,0 3.31836,-10.4843755 -0.77149,0 z m -3.90429,3.5683595 -6.84766,2.898437 0,0.966797 6.84766,2.898438 0,-1.107422 -5.51758,-2.294922 5.51758,-2.253906 0,-1.107422 z m 5.28124,0 0,1.107422 5.51758,2.294922 -5.51758,2.253906 0,1.107422 6.84571,-2.898438 0,-0.966797 -6.84571,-2.898437 z"
     id="path-source" />
  <path
     id="path-redo"
     style="fill:#000000;fill-opacity:1;stroke:none"
     d="m 686.25391,9.1015 4.89843,4.6407 -4.89843,4.5547 0,-2.1485 -10.74219,0 c -0.91667,0 -1.375,0.5729 -1.375,1.7188 l 0,1.0312 -1.28906,0 0,-5.2422 c -10e-6,-1.6041 0.80208,-2.4062 2.40625,-2.4062 l 11,0 0,-2.1485" />
  <path
     style="fill:#000000;fill-opacity:1;stroke:none"
     id="path-undo"
     d="m 649.74613,9.1015 -4.89844,4.6407 4.89844,4.5546 0,-2.1484 10.74218,0 c 0.91667,0 1.37501,0.5729 1.375,1.7188 l 0,1.0312 1.28907,0 0,-5.2422 c 0,-1.6041 -0.80208,-2.4062 -2.40625,-2.4062 l -11,0 0,-2.1485" />
  <path
     style="fill:#000000;fill-opacity:1;stroke:none"
     d="m 97.875,5.59375 c -3.519997,0 -5.6875,1.81475 -5.6875,4.71875 0,0.8881 0.226682,1.594 0.65625,2.1875 l 4.375,0 -0.34375,-0.09375 c -1.935998,-0.528 -2.65625,-1.143 -2.65625,-2.375 0,-1.628 1.437752,-2.71875 3.59375,-2.71875 2.552,0 3.978,1.16 4,3.25 l 1.9375,0 C 103.728,7.4165 101.571,5.59375 97.875,5.59375 Z M 91,13.5 l 0,1 6.078125,0 2.234375,0.59375 c 2.024,0.528 2.9375,1.33975 2.9375,2.59375 0,1.144 -0.61775,2.90625 -4.09375,2.90625 -3.629997,0 -4.53125,-2.0595 -4.53125,-3.6875 l 0,-0.125 -1.9375,0 c 0.066,4.554 3.571753,5.625 6.34375,5.625 5.01599,0 6.28125,-2.94825 6.28125,-4.90625 0,-1.229831 -0.48001,-2.255908 -1.36328,-3 l 2.05078,0 0,-1 -4,0 -7.0625,0 -2.9375,0 z"
     id="path-strikethrough" />
  <path
     style="fill:none;stroke:#000000;stroke-width:1;stroke-opacity:1"
     d="m 592.62349,5.36 c -0.70363,-0.7036 -1.81543,-0.7036 -2.51907,0 l -4.552,4.552 c -0.70364,0.7037 -0.70363,1.8155 0,2.5191 l 1.01647,1.0165 c 0.70363,0.7036 1.81542,0.7036 2.51907,0 l 4.552,-4.552 c 0.70364,-0.7037 0.70363,-1.8155 0,-2.5191 L 592.62349,5.36 Z m -9.19239,9.1924 c -0.70363,-0.7036 -1.81542,-0.7036 -2.51907,0 l -4.552,4.552 c -0.70364,0.7037 -0.70363,1.8154 0,2.5191 l 1.01647,1.0164 c 0.70364,0.7037 1.81543,0.7037 2.51907,0 l 4.552,-4.552 c 0.70364,-0.7036 0.70363,-1.8154 0,-2.519 l -1.01647,-1.0165 z"
     id="rect4023" />
  <path
     style="fill:#000000;fill-opacity:1;stroke:none"
     d="m 588.97511,9.6809 0.344,0.344 c 0.29645,0.2964 0.29646,0.7737 -3e-5,1.0702 l -7.22395,7.224 c -0.29642,0.2964 -0.77372,0.2964 -1.07017,-10e-5 l -0.344,-0.344 c -0.29645,-0.2964 -0.29646,-0.7737 -4e-5,-1.0702 l 7.22394,-7.2239 c 0.29649,-0.2965 0.7738,-0.2965 1.07025,0 z"
     id="rect4061" />
  <path
     style="fill:none;stroke:#000000;stroke-width:1;stroke-opacity:1"
     d="m 633.6235,5.36 c -0.70364,-0.7036 -1.8154,-0.7037 -2.51911,10e-5 l -4.552,4.552 c -0.70364,0.7036 -0.7036,1.8154 4e-5,2.519 l 1.01646,1.0165 c 0.70364,0.7036 1.81539,0.7036 2.51904,0 l 4.552,-4.552 c 0.70371,-0.7037 0.70367,-1.8155 3e-5,-2.5191 L 633.6235,5.36 Z m -9.19239,9.1924 c -0.70364,-0.7036 -1.81539,-0.7037 -2.51911,0 l -4.552,4.552 c -0.70364,0.7037 -0.7036,1.8154 4e-5,2.5191 l 1.01647,1.0164 c 0.70363,0.7037 1.81539,0.7037 2.51903,10e-5 l 4.552,-4.552 c 0.70371,-0.7037 0.70367,-1.8155 3e-5,-2.5191 l -1.01646,-1.0165 z"
     id="rect4023-8" />
  <path
     style="fill:#000000;fill-opacity:1;stroke:none"
     d="m 629.96759,9.6674 c -0.29646,-0.2964 -0.76417,-0.2965 -1.06066,0 l -3.27037,3.2704 1.41421,1.4142 3.27037,-3.2704 c 0.29649,-0.2965 0.29646,-0.7642 0,-1.0606 l -0.35355,-0.3536 z m -5.03814,3.9775 -3.24827,3.2483 c -0.29642,0.2964 -0.29645,0.7642 0,1.0606 l 0.35355,0.3536 c 0.29646,0.2964 0.76424,0.2964 1.06066,0 l 3.24828,-3.2483 -1.41422,-1.4142 z"
     id="rect4061-0" />
  <path
     id="path4333"
     style="fill:#000000;fill-opacity:1;stroke:none"
     d="m 635.06771,18.9517 -1.764,1.752 -1.752,-1.74 -0.588,0.588 1.752,1.752 -1.764,1.764 0.6,0.588 1.752,-1.752 1.764,1.764 0.6,-0.6 -1.764,-1.764 1.752,-1.752 -0.588,-0.6" />
  <path
     id="path-bold-disabled"
     style="opacity:0.5;fill:#000000;fill-opacity:1;stroke:none"
     d="m 20.424001,45.399 c 0,-1.584 -0.858002,-2.838 -2.662,-3.894 1.583998,-1.012 2.2,-1.936 2.2,-3.3 0,-1.474 -1.012004,-4.224 -5.236,-4.224 l -7.1500001,0 0,16.038 7.2160001,0 c 4.509995,0 5.632,-2.706 5.632,-4.62 m -9.548,-8.668 3.586,0 c 1.517998,0 2.332,0.638 2.332,1.826 0,1.166 -0.814002,1.804 -2.332,1.804 l -3.586,0 0,-3.63 m 0,6.38 3.938,0 c 1.605998,0 2.442,0.726 2.442,2.09 0,1.342 -0.836002,2.068 -2.442,2.068 l -3.938,0 0,-4.158" />
  <path
     id="path-italic-disabled"
     style="opacity:0.5;fill:#000000;fill-opacity:1;stroke:none"
     d="m 44.739002,33.981 -2.068,0 -3.41,16.038 2.068,0 3.41,-16.038" />
  <path
     style="opacity:0.5;fill:#000000;fill-opacity:1;stroke:none"
     d="m 63.839844,33.728516 0,11.263672 c 0,3.256 2.332676,5.279296 6.138672,5.279296 3.761996,0 6.18164,-2.067297 6.18164,-5.279296 l 0,-11.263672 -2.046875,0 0,11.263672 c 0,2.155999 -1.560767,3.476562 -4.134765,3.476562 -2.353997,0 -4.091797,-1.056562 -4.091797,-3.476562 l 0,-11.263672 -2.046875,0 z M 63,52 l 0,1 14,0 0,-1 -14,0 z"
     id="path-underline-disabled" />
  <path
     style="opacity:0.5;fill:#000000;fill-opacity:1;stroke:none"
     d="m 119.87305,33.980469 -0.59375,2.75 4.88281,0 -2.83789,13.289062 3.30078,0 2.83789,-13.289062 4.66406,0 0.59375,-2.75 -12.84765,0 z m 15.26757,15.802734 -1.76367,1.751953 -1.7539,-1.738281 -0.58789,0.587891 1.75195,1.751953 -1.76367,1.763672 0.59961,0.58789 1.7539,-1.751953 1.76367,1.763672 0.59961,-0.599609 -1.76367,-1.763672 1.75196,-1.751953 -0.5879,-0.601563 z M 116,52 l 0,1 14,0 0,-1 -14,0 z"
     id="path-removeformat-disabled" />
  <path
     id="path-forecolor-disabled"
     style="opacity:0.5;fill:#000000;fill-opacity:1;stroke:none"
     d="m 157.058,45.201 1.65,4.818 2.288,0 -5.632,-16.038 -2.64,0 -5.72,16.038 2.178,0 1.694,-4.818 6.182,0 m -0.572,-1.716 -5.104,0 2.64,-7.304 2.464,7.304" />
  <path
     id="path-forecolor-disabled-pulldown"
     d="m 171,40 3.49574,4 3.50426,-4 -7,0"
     style="opacity:1;fill:#787878;fill-opacity:1;stroke:none" />
  <path
     style="opacity:0.5;fill:#e0e0e0;fill-opacity:1;stroke:#000000;stroke-opacity:1"
     d="m 185.5,32.5 19,0 0,19 -19,0 z"
     id="rect3108-2" />
  <path
     id="path4254-1"
     style="opacity:0.5;fill:#000000;fill-opacity:1;stroke:none"
     d="m 198.058,45.201 1.65,4.818 2.288,0 -5.632,-16.038 -2.64,0 -5.72,16.038 2.178,0 1.694,-4.818 6.182,0 m -0.572,-1.716 -5.104,0 2.64,-7.304 2.464,7.304" />
  <path
     id="path-backcolor-disabled-pulldown"
     d="m 212,40 3.49574,4 3.50426,-4 -7,0"
     style="opacity:1;fill:#787878;fill-opacity:1;stroke:none" />
  <path
     style="opacity:0.5;fill:#000000;fill-opacity:1;stroke:none"
     d="m 245,33.931641 c -0.77599,0 -1.82505,0.25675 -1.87305,1.96875 l 0.70508,0 c 0.032,-0.528 0.16854,-1.351563 1.14453,-1.351563 0.64,0 1.11914,0.456453 1.11914,1.064453 0,0.448 -0.26357,0.831141 -0.76758,1.119141 l -0.73632,0.416016 c -1.18399,0.672 -1.5278,1.207078 -1.5918,2.455078 l 3.77539,0 0,-0.695313 -2.98437,0 c 0.072,-0.464 0.3134,-0.783969 1.02539,-1.167969 l 0.79882,-0.43164 c 0.792,-0.432 1.20118,-1.016891 1.20118,-1.712891 0,-0.984 -0.74441,-1.664062 -1.81641,-1.664062 z m -13.79688,2.304687 3.85157,5.654297 -4.07031,5.873047 2.08984,0 2.92578,-4.421875 2.88281,4.421875 2.13281,0 -3.98242,-5.960938 3.87305,-5.566406 -2.06836,0 -2.77148,4.179688 -2.77149,-4.179688 -2.0918,0 z"
     id="path-superscript-disabled" />
  <path
     style="opacity:0.5;fill:#000000;fill-opacity:1;stroke:none"
     d="m 259.20312,36.236328 3.85157,5.654297 -4.07031,5.873047 2.08984,0 2.92578,-4.421875 2.88281,4.421875 2.13281,0 -3.98242,-5.960938 3.87305,-5.566406 -2.06836,0 -2.77148,4.179688 -2.77149,-4.179688 -2.0918,0 z M 273,44.462891 c -0.776,0 -1.82309,0.254797 -1.87109,1.966797 l 0.70312,0 c 0.032,-0.528001 0.16853,-1.351563 1.14453,-1.351563 0.64,0 1.11914,0.456453 1.11914,1.064453 0,0.448 -0.26358,0.831141 -0.76758,1.119141 l -0.73632,0.416015 c -1.184,0.672 -1.5278,1.209032 -1.5918,2.457032 l 3.77539,0 0,-0.695313 -2.98242,0 c 0.072,-0.464 0.31144,-0.783969 1.02344,-1.167969 l 0.79882,-0.433593 c 0.792,-0.432 1.20118,-1.014938 1.20118,-1.710938 0,-0.984 -0.74441,-1.664062 -1.81641,-1.664062 z"
     id="path-subscript-disabled" />
  <path
     style="opacity:0.5;fill:#000000;fill-opacity:1;stroke:none"
     d="m 283,35 0,2 18,0 0,-2 -18,0 z m 0,3 0,2 12,0 0,-2 -12,0 z m 0,3 0,2 16,0 0,-2 -16,0 z m 0,3 0,2 12,0 0,-2 -12,0 z m 0,3 0,2 18,0 0,-2 -18,0 z"
     id="path-justifyleft-disabled" />
  <path
     style="opacity:0.5;fill:#000000;fill-opacity:1;stroke:none"
     d="m 311,35 0,2 18,0 0,-2 -18,0 z m 3,3 0,2 12,0 0,-2 -12,0 z m -2,3 0,2 16,0 0,-2 -16,0 z m 2,3 0,2 12,0 0,-2 -12,0 z m -3,3 0,2 18,0 0,-2 -18,0 z"
     id="path-justifycenter-disabled" />
  <path
     style="opacity:0.5;fill:#000000;fill-opacity:1;stroke:none"
     d="m 339,35 0,2 18,0 0,-2 -18,0 z m 6,3 0,2 12,0 0,-2 -12,0 z m -4,3 0,2 16,0 0,-2 -16,0 z m 4,3 0,2 12,0 0,-2 -12,0 z m -6,3 0,2 18,0 0,-2 -18,0 z"
     id="path-justifyright-disabled" />
  <path
     style="opacity:0.5;fill:#000000;fill-opacity:1;stroke:none"
     d="m 367,35 0,2 18,0 0,-2 -18,0 z m 0,3 0,2 18,0 0,-2 -18,0 z m 0,3 0,2 18,0 0,-2 -18,0 z m 0,3 0,2 18,0 0,-2 -18,0 z m 0,3 0,2 18,0 0,-2 -18,0 z"
     id="path-justifyboth-disabled" />
  <path
     style="opacity:0.5;fill:#000000;fill-opacity:1;stroke:none"
     d="m 395,35 0,2 18,0 0,-2 -18,0 z m 6,3 0,2 12,0 0,-2 -12,0 z m -6,0.5 0,7 4,-3.496094 L 395,38.5 Z m 6,2.5 0,2 12,0 0,-2 -12,0 z m 0,3 0,2 12,0 0,-2 -12,0 z m -6,3 0,2 18,0 0,-2 -18,0 z"
     id="path-indent-disabled" />
  <path
     style="opacity:0.5;fill:#000000;fill-opacity:1;stroke:none"
     d="m 423,35 0,2 18,0 0,-2 -18,0 z m 6,3 0,2 12,0 0,-2 -12,0 z m -2,0.5 -4,3.503906 4,3.496094 0,-7 z m 2,2.5 0,2 12,0 0,-2 -12,0 z m 0,3 0,2 12,0 0,-2 -12,0 z m -6,3 0,2 18,0 0,-2 -18,0 z"
     id="rect3022-8-5-5-0-4-6" />
  <path
     style="opacity:0.5;fill:#000000;fill-opacity:1;stroke:none"
     d="m 480.5,34.5 c -0.82842,0 -1.5,0.6716 -1.5,1.5 0,0.8284 0.67158,1.5 1.5,1.5 0.82843,0 1.5,-0.6716 1.5,-1.5 0,-0.8284 -0.67157,-1.5 -1.5,-1.5 z m 2.5,0 0,3 14,0 0,-3 -14,0 z m -2.5,6 c -0.82842,0 -1.5,0.6716 -1.5,1.5 0,0.8284 0.67158,1.5 1.5,1.5 0.82843,0 1.5,-0.6716 1.5,-1.5 0,-0.8284 -0.67157,-1.5 -1.5,-1.5 z m 2.5,0 0,3 14,0 0,-3 -14,0 z m -2.5,6 c -0.82842,0 -1.5,0.6716 -1.5,1.5 0,0.8284 0.67158,1.5 1.5,1.5 0.82843,0 1.5,-0.6716 1.5,-1.5 0,-0.8284 -0.67157,-1.5 -1.5,-1.5 z m 2.5,0 0,3 14,0 0,-3 -14,0 z"
     id="path-insertunorderedlist-disabled" />
  <path
     style="opacity:0.5;fill:#000000;fill-opacity:1;stroke:none"
     d="m 507,41 18,0 0,2 -18,0 z"
     id="path-inserthorizontalrule-disabled" />
  <path
     style="opacity:0.5;fill:#e0e0e0;fill-opacity:1;stroke:#000000;stroke-opacity:1"
     d="m 534,34.5 20,0 0,15 -20,0 z"
     id="rect4370-0" />
  <path
     style="opacity:0.5;fill:#3c3c3c;fill-opacity:1;stroke:none"
     d="m 540,36.5 -4.5,11 c 5.96246,0 10.92155,0 17,0 l -5.5,-6 -3.4375,3.75 z"
     id="path3937-7-7-3-8-4" />
  <path
     style="opacity:0.5;fill:#3c3c3c;fill-opacity:1;stroke:none"
     d="m 552.5,38.5 c 0,1.1046 -0.89543,2 -2,2 -1.10457,0 -2,-0.8954 -2,-2 0,-1.1046 0.89543,-2 2,-2 1.10457,0 2,0.8954 2,2 z"
     id="path4428-1" />
  <path
     id="path-insertimage-disabled-pulldown"
     d="m 561,40.0001 3.49574,4 3.50426,-4 -7,0"
     style="opacity:1;fill:#787878;fill-opacity:1;stroke:none" />
  <path
     id="path-createlink-disabled-pulldown"
     d="m 602.00002,40 3.49574,4 3.50426,-4 -7,0"
     style="opacity:1;fill:#787878;fill-opacity:1;stroke:none" />
  <path
     style="opacity:0.5;fill:#000000;fill-opacity:1;stroke:none"
     d="m 711.26367,36.757812 -3.3164,10.484376 0.76953,0 3.31836,-10.484376 -0.77149,0 z m -3.90429,3.56836 -6.84766,2.898437 0,0.966797 6.84766,2.898438 0,-1.107422 -5.51758,-2.294922 5.51758,-2.253906 0,-1.107422 z m 5.28124,0 0,1.107422 5.51758,2.294922 -5.51758,2.253906 0,1.107422 6.84571,-2.898438 0,-0.966797 -6.84571,-2.898437 z"
     id="path-source-disabled" />
  <path
     id="path-redo-disabled"
     style="opacity:0.5;fill:#000000;fill-opacity:1;stroke:none"
     d="m 686.25391,37.1015 4.89843,4.6407 -4.89843,4.5547 0,-2.1485 -10.74219,0 c -0.91667,0 -1.375,0.5729 -1.375,1.7188 l 0,1.0312 -1.28906,0 0,-5.2422 c -10e-6,-1.6041 0.80208,-2.4062 2.40625,-2.4062 l 11,0 0,-2.1485" />
  <path
     style="opacity:0.5;fill:#000000;fill-opacity:1;stroke:none"
     id="path-undo-disabled"
     d="m 649.74613,37.1015 -4.89844,4.6407 4.89844,4.5546 0,-2.1484 10.74218,0 c 0.91667,0 1.37501,0.5729 1.375,1.7188 l 0,1.0312 1.28907,0 0,-5.2422 c 0,-1.6041 -0.80208,-2.4062 -2.40625,-2.4062 l -11,0 0,-2.1485" />
  <path
     style="opacity:0.5;fill:#000000;fill-opacity:1;stroke:none"
     d="m 97.875,33.59375 c -3.519997,0 -5.6875,1.81475 -5.6875,4.71875 0,0.8881 0.226682,1.594 0.65625,2.1875 l 4.375,0 -0.34375,-0.09375 c -1.935998,-0.528 -2.65625,-1.143 -2.65625,-2.375 0,-1.628 1.437752,-2.71875 3.59375,-2.71875 2.552,0 3.978,1.16 4,3.25 l 1.9375,0 c -0.022,-3.146 -2.179,-4.96875 -5.875,-4.96875 z M 91,41.5 l 0,1 6.078125,0 2.234375,0.59375 c 2.024,0.528 2.9375,1.33975 2.9375,2.59375 0,1.144 -0.61775,2.90625 -4.09375,2.90625 -3.629997,0 -4.53125,-2.0595 -4.53125,-3.6875 l 0,-0.125 -1.9375,0 c 0.066,4.554 3.571753,5.625 6.34375,5.625 5.01599,0 6.28125,-2.94825 6.28125,-4.90625 0,-1.229831 -0.48001,-2.255904 -1.36328,-3 l 2.05078,0 0,-1 -4,0 -7.0625,0 -2.9375,0 z"
     id="path-strikethrough-disabled" />
  <path
     style="opacity:0.5;fill:none;stroke:#000000;stroke-width:1;stroke-opacity:1"
     d="m 592.62349,33.36 c -0.70363,-0.7036 -1.81543,-0.7036 -2.51907,0 l -4.552,4.552 c -0.70364,0.7037 -0.70363,1.8155 0,2.5191 l 1.01647,1.0165 c 0.70363,0.7036 1.81542,0.7036 2.51907,0 l 4.552,-4.552 c 0.70364,-0.7037 0.70363,-1.8155 0,-2.5191 L 592.62349,33.36 Z m -9.19239,9.1924 c -0.70363,-0.7036 -1.81542,-0.7036 -2.51907,0 l -4.552,4.552 c -0.70364,0.7037 -0.70363,1.8154 0,2.5191 l 1.01647,1.0164 c 0.70364,0.7037 1.81543,0.7037 2.51907,0 l 4.552,-4.552 c 0.70364,-0.7036 0.70363,-1.8154 0,-2.519 l -1.01647,-1.0165 z"
     id="rect4023-1" />
  <path
     style="opacity:0.5;fill:#000000;fill-opacity:1;stroke:none"
     d="m 588.97511,37.6809 0.344,0.344 c 0.29645,0.2964 0.29646,0.7737 -3e-5,1.0702 l -7.22395,7.224 c -0.29642,0.2964 -0.77372,0.2964 -1.07017,-10e-5 l -0.344,-0.344 c -0.29645,-0.2964 -0.29646,-0.7737 -4e-5,-1.0702 l 7.22394,-7.2239 c 0.29649,-0.2965 0.7738,-0.2965 1.07025,0 z"
     id="rect4061-1" />
  <path
     style="opacity:0.5;fill:none;stroke:#000000;stroke-width:1;stroke-opacity:1"
     d="m 633.6235,33.36 c -0.70364,-0.7036 -1.8154,-0.7037 -2.51911,1e-4 l -4.552,4.552 c -0.70364,0.7036 -0.7036,1.8154 4e-5,2.519 l 1.01646,1.0165 c 0.70364,0.7036 1.81539,0.7036 2.51904,0 l 4.552,-4.552 c 0.70371,-0.7037 0.70367,-1.8155 3e-5,-2.5191 L 633.6235,33.36 Z m -9.19239,9.1924 c -0.70364,-0.7036 -1.81539,-0.7037 -2.51911,0 l -4.552,4.552 c -0.70364,0.7037 -0.7036,1.8154 4e-5,2.5191 l 1.01647,1.0164 c 0.70363,0.7037 1.81539,0.7037 2.51903,1e-4 l 4.552,-4.552 c 0.70371,-0.7037 0.70367,-1.8155 3e-5,-2.5191 l -1.01646,-1.0165 z"
     id="rect4023-8-6" />
  <path
     style="opacity:0.5;fill:#000000;fill-opacity:1;stroke:none"
     d="m 629.96759,37.6674 c -0.29646,-0.2964 -0.76417,-0.2965 -1.06066,0 l -3.27037,3.2704 1.41421,1.4142 3.27037,-3.2704 c 0.29649,-0.2965 0.29646,-0.7642 0,-1.0606 l -0.35355,-0.3536 z m -5.03814,3.9775 -3.24827,3.2483 c -0.29642,0.2964 -0.29645,0.7642 0,1.0606 l 0.35355,0.3536 c 0.29646,0.2964 0.76424,0.2964 1.06066,0 l 3.24828,-3.2483 -1.41422,-1.4142 z"
     id="rect4061-0-4" />
  <path
     id="path4333-6"
     style="opacity:0.5;fill:#000000;fill-opacity:1;stroke:none"
     d="m 635.06771,46.9517 -1.764,1.752 -1.752,-1.74 -0.588,0.588 1.752,1.752 -1.764,1.764 0.6,0.588 1.752,-1.752 1.764,1.764 0.6,-0.6 -1.764,-1.764 1.752,-1.752 -0.588,-0.6" />
</svg>
